<svg width="64" height="19" viewBox="0 0 64 19" fill="none" xmlns="http://www.w3.org/2000/svg">
<path d="M1.16938 17.66C0.836042 17.66 0.562709 17.5667 0.349375 17.38C0.149375 17.2067 0.0493752 17.0133 0.0493752 16.8C0.0493752 16.56 0.0827085 16.38 0.149375 16.26C0.229375 16.1267 0.396042 16.0333 0.649375 15.98C1.27604 15.8333 1.92271 15.66 2.58938 15.46C3.26938 15.2467 3.90271 15.0267 4.48938 14.8C5.07604 14.56 5.54938 14.3267 5.90938 14.1C6.28271 13.8733 6.46938 13.6733 6.46938 13.5C6.46938 13.34 6.32271 13.1867 6.02938 13.04C5.73604 12.88 5.36271 12.7067 4.90938 12.52C4.45604 12.3333 3.96938 12.1267 3.44938 11.9C2.92938 11.6733 2.44271 11.4133 1.98938 11.12C1.53604 10.8267 1.16271 10.4933 0.869375 10.12C0.576042 9.73333 0.429375 9.29333 0.429375 8.8C0.429375 8.02667 0.616042 7.30667 0.989375 6.64C1.37604 5.96 1.87604 5.33333 2.48938 4.76C3.10271 4.18667 3.77604 3.66 4.50938 3.18C5.25604 2.68667 5.98938 2.25333 6.70938 1.88C7.44271 1.49333 8.09604 1.15333 8.66938 0.859999C8.85604 0.753332 9.03604 0.679999 9.20938 0.64C9.38271 0.599999 9.53604 0.579999 9.66938 0.579999C10.056 0.579999 10.336 0.666666 10.5094 0.839999C10.6827 1.01333 10.7694 1.21333 10.7694 1.44C10.7694 1.62667 10.6694 1.84667 10.4694 2.1C10.2694 2.34 9.98271 2.55333 9.60938 2.74C9.23604 2.92667 8.78938 3.02 8.26938 3.02H8.10938C7.65604 3.26 7.16271 3.54667 6.62938 3.88C6.09604 4.21333 5.56938 4.58 5.04938 4.98C4.52938 5.38 4.04938 5.79333 3.60938 6.22C3.18271 6.63333 2.83604 7.03333 2.56938 7.42C2.31604 7.80667 2.18938 8.16 2.18938 8.48C2.18938 8.86667 2.33604 9.21333 2.62938 9.52C2.92271 9.82667 3.29604 10.1 3.74938 10.34C4.21604 10.58 4.70271 10.8133 5.20938 11.04C5.72938 11.2667 6.21604 11.5 6.66938 11.74C7.13604 11.9667 7.51604 12.22 7.80938 12.5C8.10271 12.7667 8.24938 13.08 8.24938 13.44C8.24938 13.8533 8.10271 14.2467 7.80938 14.62C7.52938 14.9933 7.15604 15.34 6.68938 15.66C6.22271 15.9667 5.70938 16.2467 5.14938 16.5C4.60271 16.74 4.06271 16.9467 3.52938 17.12C2.99604 17.2933 2.51604 17.4267 2.08938 17.52C1.67604 17.6133 1.36938 17.66 1.16938 17.66ZM14.6392 17.42C14.4259 17.42 14.2526 17.3467 14.1192 17.2C13.9859 17.0533 13.9192 16.7933 13.9192 16.42C13.9192 16.14 14.0059 15.6867 14.1792 15.06C14.3659 14.42 14.6126 13.6733 14.9192 12.82C15.2392 11.9667 15.5926 11.0667 15.9792 10.12C16.3792 9.16 16.7926 8.20667 17.2192 7.26C17.6459 6.31333 18.0659 5.44 18.4792 4.64C18.8926 3.82667 19.2726 3.14 19.6192 2.58C19.9659 2.02 20.2592 1.65333 20.4992 1.48C20.7792 1.28 21.0392 1.18 21.2792 1.18C21.4126 1.18 21.5459 1.19333 21.6792 1.22C21.8126 1.24667 21.9259 1.29333 22.0192 1.36C22.2592 1.50667 22.4659 1.83333 22.6392 2.34C22.8259 2.83333 22.9859 3.44 23.1192 4.16C23.2526 4.86667 23.3592 5.62667 23.4392 6.44C23.5326 7.24 23.6126 8.03333 23.6792 8.82C24.0792 8.76667 24.4126 8.72667 24.6792 8.7C24.9459 8.67333 25.1392 8.66 25.2592 8.66C25.7126 8.66 25.9992 8.72 26.1192 8.84C26.2392 8.96 26.3059 9.1 26.3192 9.26C26.3459 9.5 26.2792 9.71333 26.1192 9.9C25.9592 10.0867 25.7326 10.2267 25.4392 10.32C25.3459 10.3467 25.1459 10.3933 24.8392 10.46C24.5459 10.5133 24.1926 10.58 23.7792 10.66C23.7926 11.06 23.7992 11.4333 23.7992 11.78C23.8126 12.1133 23.8192 12.4 23.8192 12.64C23.8192 13.8533 23.7459 14.7667 23.5992 15.38C23.4526 15.98 23.2726 16.3867 23.0592 16.6C22.8459 16.8133 22.6392 16.92 22.4392 16.92C22.1992 16.92 22.0326 16.8533 21.9392 16.72C21.8459 16.5733 21.7992 16.3667 21.7992 16.1V14.68C21.7992 14.1867 21.7926 13.6267 21.7792 13C21.7792 12.36 21.7726 11.6867 21.7592 10.98C20.9726 11.1133 20.1726 11.24 19.3592 11.36C18.5592 11.48 17.8659 11.5867 17.2792 11.68C16.9859 12.44 16.7326 13.1267 16.5192 13.74C16.3059 14.34 16.1592 14.8 16.0792 15.12C15.8792 15.7867 15.6992 16.2867 15.5392 16.62C15.3792 16.94 15.2259 17.1533 15.0792 17.26C14.9459 17.3667 14.7992 17.42 14.6392 17.42ZM17.9592 9.9C18.6526 9.74 19.3126 9.59333 19.9392 9.46C20.5792 9.32667 21.1659 9.21333 21.6992 9.12C21.6592 7.92 21.5859 6.77333 21.4792 5.68C21.3859 4.57333 21.2459 3.7 21.0592 3.06C20.8059 3.5 20.5059 4.08667 20.1592 4.82C19.8126 5.55333 19.4459 6.36667 19.0592 7.26C18.6859 8.14 18.3192 9.02 17.9592 9.9ZM40.2905 18.2C39.9971 18.2 39.7505 18.0867 39.5505 17.86C39.3638 17.6333 39.2705 17.26 39.2705 16.74C39.2705 16.5667 39.2905 16.38 39.3305 16.18C39.3705 15.9667 39.4438 15.7533 39.5505 15.54C38.8838 13.8867 38.3238 12.28 37.8705 10.72C37.4171 9.16 37.0305 7.52667 36.7105 5.82C36.2838 6.7 35.8771 7.61333 35.4905 8.56C35.1171 9.49333 34.7638 10.4067 34.4305 11.3C34.0971 12.1933 33.7971 13.0267 33.5305 13.8C33.2638 14.5733 33.0305 15.24 32.8305 15.8C32.6171 16.4667 32.4038 16.9133 32.1905 17.14C31.9771 17.38 31.7571 17.5 31.5305 17.5C31.2238 17.5 30.9905 17.4267 30.8305 17.28C30.6838 17.1333 30.6105 16.8733 30.6105 16.5C30.6105 16.22 30.6838 15.7867 30.8305 15.2C30.9771 14.6133 31.1771 13.9333 31.4305 13.16C31.6971 12.3867 31.9971 11.5733 32.3305 10.72C32.6638 9.86667 33.0171 9.03333 33.3905 8.22C33.7771 7.40667 34.1638 6.67333 34.5505 6.02C34.9371 5.35333 35.3038 4.82667 35.6505 4.44C36.0105 4.04 36.3371 3.84 36.6305 3.84C36.9371 3.84 37.1971 3.9 37.4105 4.02C37.6371 4.14 37.8838 4.45333 38.1505 4.96C38.3238 5.30667 38.5238 5.81333 38.7505 6.48C38.9771 7.13333 39.2038 7.87333 39.4305 8.7C39.6571 9.51333 39.8771 10.3533 40.0905 11.22C40.3038 12.0733 40.4905 12.8667 40.6505 13.6C41.1838 11.1333 41.6505 8.97333 42.0505 7.12C42.4505 5.25333 42.7571 3.79333 42.9705 2.74C43.1971 1.68667 43.3171 1.13333 43.3305 1.08C43.4105 0.733333 43.4971 0.519999 43.5905 0.439999C43.6838 0.359999 43.8171 0.319999 43.9905 0.319999C44.2305 0.319999 44.4638 0.419999 44.6905 0.619999C44.9305 0.806665 45.0505 1.06667 45.0505 1.4C45.0505 1.56 45.0105 1.92667 44.9305 2.5C44.8638 3.07333 44.7571 3.79333 44.6105 4.66C44.4771 5.51333 44.3038 6.46667 44.0905 7.52C43.8771 8.56 43.6305 9.64667 43.3505 10.78C43.0705 11.9 42.7571 13.0133 42.4105 14.12C42.0771 15.2133 41.7105 16.2467 41.3105 17.22C41.1638 17.5933 40.9905 17.8467 40.7905 17.98C40.6038 18.1267 40.4371 18.2 40.2905 18.2ZM50.268 18.36C50.0413 18.36 49.848 18.2333 49.688 17.98C49.528 17.74 49.448 17.46 49.448 17.14C49.448 17.0067 49.4746 16.8867 49.528 16.78C49.5946 16.6733 49.6946 16.5933 49.828 16.54C49.9746 16.4733 50.1213 16.4133 50.268 16.36C50.428 16.2933 50.588 16.2267 50.748 16.16C50.708 16.0533 50.6746 15.9267 50.648 15.78C50.6213 15.6333 50.608 15.46 50.608 15.26C50.608 15.1133 50.6346 14.8333 50.688 14.42C50.7546 13.9933 50.8413 13.4867 50.948 12.9C51.0546 12.3133 51.168 11.6933 51.288 11.04C51.4213 10.3733 51.548 9.72667 51.668 9.1C51.8013 8.46 51.9213 7.88667 52.028 7.38C52.268 6.28667 52.5613 5.30667 52.908 4.44C53.268 3.57333 53.748 2.89333 54.348 2.4C54.9613 1.89333 55.768 1.64 56.768 1.64C57.528 1.64 58.2746 1.80667 59.008 2.14C59.7546 2.47333 60.428 2.94667 61.028 3.56C61.6413 4.16 62.128 4.86667 62.488 5.68C62.848 6.49333 63.028 7.38 63.028 8.34C63.028 9.16667 62.8346 9.95333 62.448 10.7C62.0613 11.4333 61.5413 12.1267 60.888 12.78C60.2346 13.4333 59.488 14.04 58.648 14.6C57.8213 15.16 56.9546 15.6733 56.048 16.14C55.1546 16.5933 54.2746 16.9933 53.408 17.34C52.5413 17.7 51.7413 18 51.008 18.24C50.9146 18.2667 50.8013 18.2933 50.668 18.32C50.5346 18.3467 50.4013 18.36 50.268 18.36ZM52.168 15.6C53.328 15.12 54.4546 14.6267 55.548 14.12C56.6546 13.6133 57.648 13.0533 58.528 12.44C59.408 11.8133 60.108 11.1133 60.628 10.34C61.148 9.56667 61.408 8.68 61.408 7.68C61.408 7.16 61.288 6.65333 61.048 6.16C60.808 5.66667 60.4746 5.22667 60.048 4.84C59.6346 4.44 59.1613 4.12667 58.628 3.9C58.108 3.66 57.5613 3.54 56.988 3.54C56.468 3.54 56.0013 3.67333 55.588 3.94C55.188 4.19333 54.8413 4.64667 54.548 5.3C54.2546 5.95333 54.0013 6.86 53.788 8.02C53.628 8.74 53.4613 9.52 53.288 10.36C53.1146 11.1867 52.9413 11.98 52.768 12.74C52.608 13.4867 52.4746 14.12 52.368 14.64C52.2613 15.1467 52.2013 15.44 52.188 15.52C52.188 15.5467 52.1813 15.5733 52.168 15.6Z" fill="#000569"/>
</svg>
