<?xml version="1.0" encoding="UTF-8" standalone="no"?>
<!-- Created with Inkscape (http://www.inkscape.org/) -->

<svg
   width="79.416756mm"
   height="51.989223mm"
   viewBox="0 0 300.15782 196.49471"
   version="1.1"
   id="svg1"
   xml:space="preserve"
   xmlns="http://www.w3.org/2000/svg"
   xmlns:svg="http://www.w3.org/2000/svg"><defs
     id="defs1" /><g
     id="layer1"
     transform="translate(-47.209777,-41.341088)"><g
       id="g6"><path
         id="rect5"
         style="opacity:1;fill:#498e42;fill-opacity:1;stroke-width:18.8976;stroke-linecap:round;stroke-miterlimit:3.4;paint-order:stroke markers fill"
         d="M 70.614372,61.675842 C 95.544503,38.628555 153.4753,41.450261 195.71796,41.450261 c 42.24266,1e-6 99.86158,-2.557737 125.10358,20.225581 25.24199,22.783317 26.54608,50.068788 26.54608,77.318268 0,27.24948 -1.50735,54.2585 -26.54608,77.31827 -25.03873,23.05977 -82.79163,21.48968 -125.10358,21.48968 -42.31196,0 -100.379644,1.83123 -125.103588,-21.48968 -24.723943,-23.32092 -23.385827,-50.39242 -23.385827,-77.31827 0,-26.92585 -1.544304,-54.270981 23.385827,-77.318268 z" /><path
         id="path5"
         style="opacity:1;fill:#fcfffc;fill-opacity:1;stroke-width:18.8976;stroke-linecap:round;stroke-miterlimit:3.4;paint-order:stroke markers fill"
         d="m 169.2375,92.385195 c -23.57005,0.105743 -36.9459,14.358045 -40.87305,32.875005 -6.87794,-3.52247 -13.9009,-6.9498 -20.54101,-4.48633 -5.69339,2.11223 -10.252916,9.54097 -8.324216,14.7832 1.928696,5.24224 10.464896,6.37501 16.507806,7.45703 3.61788,0.64781 7.54911,1.21443 11.42578,1.31836 1.75075,20.96713 12.2977,35.08432 44.60938,37.9375 35.78907,3.16024 69.88482,2.63291 100.11133,-12.06836 6.15765,-2.99489 14.52539,-6.50339 14.52539,-14.52539 0,-8.02199 -6.50339,-14.52344 -14.52539,-14.52343 -21.0534,2.84693 -62.51559,-44.226136 -100.11133,-48.714851 -0.95052,-0.0395 -1.88521,-0.05686 -2.80469,-0.05273 z" /></g></g></svg>
