<?xml version="1.0" encoding="UTF-8" standalone="no"?>
<!-- Created with Inkscape (http://www.inkscape.org/) -->

<svg
   width="79.41716mm"
   height="51.989021mm"
   viewBox="0 0 300.15936 196.49394"
   version="1.1"
   id="svg1"
   xml:space="preserve"
   xmlns="http://www.w3.org/2000/svg"
   xmlns:svg="http://www.w3.org/2000/svg"><defs
     id="defs1" /><g
     id="layer1"
     transform="translate(-118.37961,-128.33154)"><path
       id="rect5-6-2"
       style="fill:#ffffff;fill-opacity:1;stroke-width:18.8976;stroke-linecap:round;stroke-miterlimit:3.4;paint-order:stroke markers fill"
       d="m 233.02535,128.36004 c -35.28276,0.28673 -72.54265,3.02118 -91.24024,20.30664 -24.93014,23.04729 -23.38672,50.39251 -23.38672,77.31836 0,26.92585 -1.33723,53.99744 23.38672,77.31836 24.72395,23.32091 82.79156,21.48828 125.10352,21.48828 42.31195,0 100.06479,1.57149 125.10352,-21.48828 25.03873,-23.05977 26.54687,-50.06888 26.54687,-77.31836 0,-27.24948 -1.30488,-54.53504 -26.54687,-77.31836 -25.242,-22.78332 -82.86086,-20.22657 -125.10352,-20.22657 -10.56067,0 -22.10236,-0.17565 -33.86328,-0.0801 z m 7.38281,51.01562 c 0.91948,-0.004 1.85417,0.0132 2.80469,0.0527 37.59574,4.48871 79.05793,51.56177 100.11133,48.71484 8.022,-1e-5 14.52539,6.50145 14.52539,14.52344 0,8.022 -8.36774,11.5305 -14.52539,14.52539 -30.22651,14.70127 -64.32226,15.2286 -100.11133,12.06836 -32.31168,-2.85318 -42.85863,-16.97037 -44.60938,-37.9375 -3.87667,-0.10393 -7.8079,-0.67055 -11.42578,-1.31836 -6.04291,-1.08202 -14.57911,-2.21479 -16.50781,-7.45703 -1.92871,-5.24223 2.63083,-12.67097 8.32422,-14.7832 6.64011,-2.46347 13.66307,0.96385 20.54101,4.48632 3.92715,-18.51696 17.303,-32.76925 40.87305,-32.875 z" /></g></svg>
