<svg width="232" height="133" viewBox="0 0 232 133" fill="none" xmlns="http://www.w3.org/2000/svg">
<path d="M229.947 132.5H1.52148L2.67188 131.652L2.67285 131.651C3.98182 130.678 4.70881 130.143 5.20898 129.548C5.71821 128.942 5.98476 128.282 6.44922 127.155C7.17414 125.753 7.87633 124.916 8.73633 124.268C9.6003 123.616 10.6444 123.139 12.1172 122.494C13.747 122.409 15.3788 122.351 17.0117 122.312H17.0166C18.3168 122.269 19.0109 122.247 19.6748 122.14C20.3408 122.031 20.9715 121.838 22.1465 121.479L22.2861 121.436L22.3799 121.324C24.0491 119.368 25.0437 117.406 26.1523 115.173C27.9551 112.487 30.069 112.204 33.3428 111.25L33.3525 111.247L33.3623 111.243C34.4058 110.893 35.0743 110.68 35.6338 110.115C35.9083 109.838 36.1433 109.492 36.3984 109.047C36.653 108.603 36.9437 108.03 37.3203 107.289L37.334 107.263L37.3447 107.235C37.716 106.225 38.0862 105.213 38.4688 104.172C39.0663 102.679 39.4544 101.801 40.0195 101.088C40.5787 100.382 41.3386 99.8071 42.749 98.9961L42.7646 98.9863C44.2918 98.0319 45.2373 97.1686 45.9209 96.0889C46.5487 95.0972 46.9342 93.949 47.3799 92.4658C48.7914 92.3305 49.5261 92.2656 50.3125 92.2656C51.1331 92.2656 52.0133 92.336 53.7715 92.4824C54.91 93.6504 55.4738 94.2329 55.9375 94.8125C56.4155 95.41 56.7901 96.0069 57.5762 97.2646L57.7432 97.5332L58.0576 97.4971C59.6814 97.31 60.5653 97.2106 61.376 96.9404C62.165 96.6774 62.8757 96.255 64.1377 95.5H71.1182L71.2236 95.4473C74.1292 93.9945 74.9277 91.8332 76.4014 89.3047C77.3844 88.3219 77.8334 87.8801 78.3223 87.5703C78.8138 87.2588 79.3559 87.0754 80.5957 86.6621L80.6221 86.6533L80.6475 86.6416C82.3453 85.8548 83.423 85.0899 84.2705 84.0703C85.1038 83.0678 85.692 81.8429 86.4531 80.2119L86.4746 80.165L86.4863 80.1152C86.7523 78.9901 87.0181 77.8647 87.292 76.7061C88.0087 74.5587 88.7817 72.8121 89.8516 71.3203C90.9049 69.8515 92.2605 68.6093 94.1709 67.4795C97.0579 67.0428 99.7563 67.1301 102.674 67.4668L102.706 67.5303C102.707 67.5312 102.707 67.5323 102.707 67.5332L102.725 67.5684C102.725 67.5694 102.726 67.5702 102.727 67.5713L102.818 67.7559L102.839 67.7969C102.844 67.8066 102.838 67.7944 102.843 67.8037L102.845 67.8076L102.846 67.8086L102.853 67.8223C102.853 67.8237 102.853 67.825 102.854 67.8271C102.859 67.8361 102.855 67.8277 102.857 67.832L102.874 67.8652V67.8662L102.882 67.8818C102.89 67.899 102.877 67.8724 102.886 67.8896L102.897 67.9131C102.902 67.923 102.896 67.9106 102.901 67.9209L102.905 67.9287L102.907 67.9326L102.909 67.9365L102.911 67.9404L102.912 67.9414L102.972 68.0615C102.972 68.0624 102.972 68.0635 102.973 68.0645L103.014 68.1465C103.014 68.1475 103.015 68.1484 103.016 68.1494L103.229 68.5752C103.235 68.5891 103.225 68.57 103.232 68.584L103.269 68.6562L103.318 68.7539L103.319 68.7568L103.323 68.7646L103.327 68.7725L103.329 68.7764L103.331 68.7803L103.333 68.7842L103.335 68.7881L103.337 68.792L103.339 68.7959L103.343 68.8037L103.345 68.8076L103.347 68.8115L103.349 68.8154L103.351 68.8193C103.361 68.8403 103.344 68.8065 103.354 68.8271C103.361 68.8411 103.352 68.8215 103.358 68.835L103.36 68.8389L103.362 68.8428L103.364 68.8467L103.366 68.8506L103.37 68.8584C103.371 68.8597 103.371 68.862 103.372 68.8633L103.387 68.8926L103.418 68.9531V68.9541L103.449 69.0166C103.46 69.0377 103.443 69.0043 103.453 69.0254L103.461 69.041L103.462 69.042L103.491 69.0996V69.1006L103.493 69.1045L103.497 69.1123L103.501 69.1201L103.503 69.124L103.505 69.1279L103.507 69.1318L103.509 69.1357C103.518 69.1532 103.504 69.1269 103.513 69.1436C103.516 69.1506 103.513 69.1453 103.517 69.1523L103.523 69.166L103.541 69.1992V69.2002L103.688 69.4932L103.989 69.5C105.996 69.5427 108.004 69.5409 110.01 69.5L110.211 69.4961L110.398 69.3086L110.4 69.3076L110.406 69.3018L110.407 69.2998L110.497 69.21L110.499 69.209L110.505 69.2031L110.506 69.2012L110.607 69.0996L110.609 69.0986L110.617 69.0908L110.618 69.0889L110.753 68.9541L110.755 68.9531L110.769 68.9395L110.77 68.9375L111.07 68.6367L111.073 68.6348L111.085 68.623L111.087 68.6201L111.188 68.5186L111.191 68.5166L111.197 68.5107L111.199 68.5078L111.211 68.4961V68.4951C113.834 68.4265 116.433 68.4084 119.057 68.4375H119.06L121.358 68.4512C123.237 68.463 125.116 68.4809 126.995 68.5L127.39 68.5039L127.485 68.1211L127.489 68.1045L127.49 68.1025V68.0996L127.497 68.0732L127.498 68.0713C127.501 68.0602 127.498 68.0696 127.501 68.0586C127.502 68.0561 127.502 68.0546 127.502 68.0537L127.527 67.9551C127.528 67.9517 127.529 67.9466 127.529 67.9453V67.9443L127.569 67.7842L127.57 67.7822V67.7793L127.626 67.5586C127.626 67.5576 127.627 67.5567 127.627 67.5557C127.627 67.5538 127.629 67.5448 127.63 67.543L127.631 67.5391L127.634 67.5264L127.635 67.5244C127.635 67.5223 127.635 67.5197 127.636 67.5176C127.636 67.5162 127.637 67.5151 127.638 67.5137L127.683 67.332C127.683 67.3313 127.683 67.3303 127.684 67.3291L127.687 67.3164L127.69 67.3008C127.691 67.2998 127.691 67.2988 127.691 67.2979V67.2949L127.754 67.0488C127.757 67.038 127.752 67.0546 127.756 67.0391C127.764 67.0075 127.752 67.0546 127.758 67.0312L128.154 65.4424C128.155 65.4392 128.157 65.437 128.156 65.4385L128.162 65.4131L128.2 65.2617C128.2 65.2607 128.201 65.2598 128.201 65.2588C128.202 65.2566 128.202 65.2541 128.202 65.252C128.203 65.2503 128.204 65.2488 128.204 65.2471L128.236 65.1191V65.1172C128.241 65.1 128.235 65.1207 128.239 65.1035C128.24 65.1015 128.241 65.0996 128.241 65.0977C128.242 65.0961 128.242 65.0943 128.242 65.0928L128.294 64.8828C129.163 62.1378 129.58 60.8341 130.074 59.9199C130.539 59.06 131.071 58.5474 132.242 57.458C133.51 57.1718 134.14 57.0325 134.801 56.9453C135.486 56.855 136.208 56.8197 137.711 56.749H137.716C138.706 56.6925 139.695 56.6353 140.715 56.5771L140.716 56.5781L143.017 56.5L143.526 56.4824L143.499 55.9736L143.312 52.4941C143.37 47.8818 143.904 44.1586 146.388 40.3203C149.496 37.3144 152.195 35.0746 155.172 33.5889C158.15 32.1023 161.436 31.3559 165.729 31.3975C168.491 31.5228 171.141 32.0209 173.916 32.4932L173.936 32.4961L173.956 32.498C176.733 32.7448 179.077 32.746 181.35 32.2959C183.627 31.8449 185.806 30.9458 188.263 29.4248L188.312 29.3945L188.396 29.3105C188.398 29.3094 188.399 29.3088 188.4 29.3076L188.404 29.3037C188.405 29.3026 188.406 29.3009 188.407 29.2998L188.493 29.2139C188.496 29.2108 188.498 29.2103 188.501 29.207C188.506 29.202 188.503 29.2038 188.508 29.1992L188.594 29.1133C188.605 29.1021 188.59 29.1183 188.602 29.1064C188.603 29.1048 188.606 29.1005 188.608 29.0986L188.698 29.0088C188.699 29.0076 188.701 29.007 188.702 29.0059C188.711 28.9974 188.701 29.0059 188.709 28.998L188.803 28.9043C188.805 28.9016 188.808 28.9002 188.811 28.8975L188.818 28.8896C188.823 28.8849 188.825 28.8824 188.825 28.8818L188.927 28.7803C188.938 28.769 188.923 28.7853 188.935 28.7734C188.953 28.7546 188.923 28.7837 188.941 28.7656L189.074 28.6328C189.076 28.6312 189.082 28.626 189.082 28.626C189.085 28.6227 189.086 28.6213 189.089 28.6182L189.272 28.4346C189.274 28.4334 189.275 28.4328 189.276 28.4316L189.296 28.4121C189.297 28.411 189.298 28.4093 189.299 28.4082L189.689 28.0176C189.691 28.0163 189.693 28.015 189.694 28.0137L189.71 27.998C189.711 27.9967 189.713 27.9945 189.714 27.9932L189.87 27.8369C189.875 27.8317 189.874 27.8343 189.879 27.8291C189.888 27.8204 189.878 27.8291 189.887 27.8203L189.98 27.7266C189.98 27.7266 189.983 27.7248 189.989 27.7188C189.996 27.7123 189.991 27.7164 189.997 27.71L190.071 27.6357C190.073 27.6344 190.075 27.6332 190.076 27.6318L190.084 27.623L190.21 27.4971C190.211 27.4957 190.214 27.4945 190.215 27.4932C190.216 27.4918 190.217 27.4896 190.219 27.4883L190.266 27.4414V27.4404C194.735 26.0283 199.314 25.1988 203.968 25.499L204.434 25.5293L204.496 25.0664C204.576 24.4639 204.657 23.8611 204.739 23.2412C205.113 22.1817 205.272 21.7613 205.548 21.4297C205.83 21.0914 206.249 20.8273 207.286 20.1982L209.181 19.4658L209.5 19.3428V17.4414C209.504 17.441 209.507 17.4409 209.511 17.4404L209.542 17.4365C209.547 17.4359 209.552 17.4352 209.557 17.4346L209.635 17.4248C209.64 17.4242 209.645 17.4235 209.649 17.4229L209.743 17.4111C209.748 17.4105 209.753 17.4098 209.758 17.4092L209.836 17.3994L210.215 17.3516C210.217 17.3512 210.22 17.3519 210.223 17.3516L210.238 17.3496C210.243 17.349 210.248 17.3483 210.253 17.3477L210.347 17.3359C210.352 17.3353 210.356 17.3346 210.361 17.334L210.455 17.3223C210.46 17.3217 210.465 17.3209 210.47 17.3203L210.563 17.3086C210.568 17.308 210.573 17.3073 210.578 17.3066L210.68 17.2939L211.098 17.2412C211.1 17.2409 211.103 17.2415 211.105 17.2412L211.137 17.2373C211.142 17.2367 211.146 17.236 211.151 17.2354L211.261 17.2217C211.266 17.2211 211.271 17.2203 211.275 17.2197L211.385 17.2061C211.39 17.2054 211.395 17.2047 211.399 17.2041L211.524 17.1885C211.529 17.1879 211.534 17.1871 211.539 17.1865L211.664 17.1709L212.262 17.0957C212.264 17.0954 212.267 17.096 212.27 17.0957L212.316 17.0898C212.321 17.0892 212.326 17.0885 212.331 17.0879L212.534 17.0625C212.539 17.0619 212.544 17.0612 212.549 17.0605L212.783 17.0312C212.788 17.0306 212.793 17.0299 212.798 17.0293L213.142 16.9863C213.146 16.9857 213.151 16.985 213.156 16.9844L214.125 16.8633C214.13 16.8626 214.136 16.862 214.142 16.8613L214.454 16.8223C214.459 16.8216 214.465 16.821 214.471 16.8203L214.674 16.7949C214.679 16.7943 214.685 16.7936 214.69 16.793L214.847 16.7734C214.852 16.7728 214.858 16.7721 214.863 16.7715L214.91 16.7656C214.913 16.7653 214.915 16.764 214.918 16.7637L215.492 16.6924C215.497 16.6917 215.504 16.6911 215.509 16.6904L215.587 16.6807C215.592 16.68 215.598 16.6794 215.604 16.6787L215.682 16.6689C215.687 16.6683 215.693 16.6677 215.698 16.667L215.776 16.6572C215.782 16.6566 215.788 16.6559 215.793 16.6553L215.809 16.6533C215.811 16.653 215.814 16.6517 215.816 16.6514L216.172 16.6074C216.177 16.6068 216.183 16.6061 216.188 16.6055L216.235 16.5996C216.241 16.5989 216.247 16.5983 216.252 16.5977L216.314 16.5898C216.32 16.5892 216.326 16.5886 216.331 16.5879L216.378 16.582C216.383 16.5814 216.389 16.5807 216.395 16.5801C216.397 16.5797 216.4 16.5785 216.402 16.5781L216.68 16.5439C216.685 16.5433 216.691 16.5427 216.696 16.542L216.743 16.5361C216.748 16.5355 216.754 16.5348 216.76 16.5342L216.791 16.5303C216.796 16.5296 216.802 16.529 216.808 16.5283L216.839 16.5244C216.844 16.5238 216.85 16.5231 216.855 16.5225L216.871 16.5205C216.874 16.5202 216.876 16.5189 216.879 16.5186L217.062 16.4961L217.368 16.458L217.472 16.166C217.84 15.1215 217.843 15.1144 218.214 14.0625C220.246 9.39043 222.029 6.1767 226.345 3.5752C227.774 3.01611 228.443 2.75708 229.003 2.62793C229.547 2.50245 229.987 2.5 231 2.5H231.309L231.447 2.22363L231.474 2.16895L229.947 132.5Z" fill="#79A449" stroke="#2B3C1B"/>
<path d="M157.252 74.4549C159.815 75.7674 159.815 75.7674 161.252 77.4549C161.252 78.4449 161.252 79.4349 161.252 80.4549C160.262 80.4549 159.272 80.4549 158.252 80.4549C158.005 81.0942 157.757 81.7336 157.502 82.3924C156.252 84.4549 156.252 84.4549 154.377 84.9549C153.676 85.1199 152.975 85.2849 152.252 85.4549C151.592 86.1561 150.932 86.8574 150.252 87.5799C149.592 88.1986 148.932 88.8174 148.252 89.4549C146.065 89.3299 146.065 89.3299 144.252 88.4549C142.683 85.3162 142.9 82.9163 143.252 79.4549C146.918 73.8981 151.057 73.3799 157.252 74.4549Z" fill="#648A3F"/>
<path d="M105.252 79.4549C107.815 80.7674 107.815 80.7674 109.252 82.4549C109.252 83.4449 109.252 84.4349 109.252 85.4549C108.262 85.4549 107.272 85.4549 106.252 85.4549C106.005 86.0942 105.757 86.7336 105.502 87.3924C104.252 89.4549 104.252 89.4549 102.377 89.9549C101.676 90.1199 100.975 90.2849 100.252 90.4549C99.5924 91.1561 98.9324 91.8574 98.2524 92.5799C97.5924 93.1986 96.9324 93.8174 96.2524 94.4549C94.0649 94.3299 94.0649 94.3299 92.2524 93.4549C90.6831 90.3162 90.9004 87.9163 91.2524 84.4549C94.9176 78.8981 99.0572 78.3799 105.252 79.4549Z" fill="#648A3F"/>
<path d="M60.2524 106.455C62.8149 107.767 62.8149 107.767 64.2524 109.455C64.2524 110.445 64.2524 111.435 64.2524 112.455C63.2624 112.455 62.2724 112.455 61.2524 112.455C61.0049 113.094 60.7574 113.734 60.5024 114.392C59.2524 116.455 59.2524 116.455 57.3774 116.955C56.6762 117.12 55.9749 117.285 55.2524 117.455C54.5924 118.156 53.9324 118.857 53.2524 119.58C52.5924 120.199 51.9324 120.817 51.2524 121.455C49.0649 121.33 49.0649 121.33 47.2524 120.455C45.6831 117.316 45.9004 114.916 46.2524 111.455C49.9176 105.898 54.0572 105.38 60.2524 106.455Z" fill="#648A3F"/>
<path d="M201.252 37.4549C203.815 38.7674 203.815 38.7674 205.252 40.4549C205.252 41.4449 205.252 42.4349 205.252 43.4549C204.262 43.4549 203.272 43.4549 202.252 43.4549C202.005 44.0942 201.757 44.7336 201.502 45.3924C200.252 47.4549 200.252 47.4549 198.377 47.9549C197.676 48.1199 196.975 48.2849 196.252 48.4549C195.592 49.1561 194.932 49.8574 194.252 50.5799C193.592 51.1986 192.932 51.8174 192.252 52.4549C190.065 52.3299 190.065 52.3299 188.252 51.4549C186.683 48.3162 186.9 45.9163 187.252 42.4549C190.918 36.8981 195.057 36.3799 201.252 37.4549Z" fill="#648A3F"/>
</svg>
