<svg width="89" height="96" viewBox="0 0 89 96" fill="none" xmlns="http://www.w3.org/2000/svg">
<path d="M71.9961 2.59082C74.9541 1.49266 78.3061 1.33248 81.4443 1.63574L82.0693 1.70215L82.4268 1.74414L82.7266 1.94336L86.3154 4.33594L86.3877 5.04004C86.6805 7.91606 86.7736 10.5645 86.7354 13.4258C86.736 14.6777 86.7366 14.6851 86.7373 15.9766V15.9785C86.7352 18.7989 86.711 21.6179 86.6875 24.4307C86.6819 26.375 86.6778 28.3193 86.6748 30.2637V30.2646C86.6633 35.4006 86.6337 40.5359 86.6006 45.6689C86.5723 50.5037 86.5588 55.3389 86.5449 60.1768C86.5438 60.5737 86.5422 60.9712 86.541 61.3682C86.5088 71.6461 86.4576 81.924 86.3945 92.2012L86.3838 94.0791L84.5537 93.6523C82.3579 93.14 80.3872 92.6145 78.2246 91.5332L77.3945 91.1191V90.4326C70.2229 93.0925 62.2361 94.1463 54.6387 91.6836C52.8385 91.622 51.0334 91.6076 49.2256 91.6289H49.2207C48.2297 91.6379 47.2387 91.646 46.2178 91.6553L46.2188 91.6562L43.918 91.6914L43.8232 91.6934L43.7295 91.6826L16.8154 88.6914C14.9621 88.6917 13.7545 88.6996 12.8486 88.4873C11.7572 88.2315 11.0914 87.6624 10.3193 87.0381L10.2021 86.9434L10.1064 86.8271C7.70946 83.9282 5.91457 81.2445 4.78223 78.2578C3.64419 75.256 3.20974 72.0417 3.39648 68.1201L3.44531 67.0938L5.90918 66.2725C5.99964 66.2423 6.09036 66.2117 6.18652 66.1797C6.05964 65.5354 5.95137 65.1682 5.65723 64.25L5.23145 64.0371L4.22461 63.5332L3.39453 63.1191V59.6924H2.43359L2.57129 58.7246C2.42881 58.2661 2.52929 57.8505 2.67969 57.5664C2.73168 56.6282 2.89377 55.9569 3.0459 55.3652L3.39453 52.9004V47.29C3.2508 46.227 3.1602 45.5573 3.16016 44.833C3.16016 44.1003 3.25332 43.3254 3.40527 42.0186L3.47754 41.3936L3.97363 41.0078C6.77573 38.8284 9.38272 37.7786 12.5264 36.9805C12.562 36.6767 12.5954 36.3972 12.667 35.7871L12.6689 35.7676L12.6719 35.748C13.2381 31.8154 13.5467 29.6222 14.1299 27.9609C14.7476 26.2016 15.6707 25.0403 17.1494 23.1445L17.2783 22.9795L17.4463 22.8564C19.7074 21.202 21.7733 20.2999 23.9941 19.8789C25.8992 19.5178 27.8637 19.5226 30.043 19.6387L30.9902 19.6953L31.127 19.7031L31.2598 19.7373C34.0183 20.4289 36.7178 21.2386 39.3945 22.1123V20.6924H48.9658C49.8625 18.8955 50.7497 17.1056 51.6016 15.3018L51.7295 15.0303L51.9521 14.8291C54.922 12.1467 57.8016 12.297 60.8037 12.4805L62.0986 12.5527L62.1221 12.5537L62.1445 12.5557C62.2364 12.5626 62.3191 12.5685 62.3945 12.5742V10.6924H64.5469L64.5908 10.2822L64.6104 10.1025L64.6719 9.93262C66.0634 6.07925 68.7841 3.7833 71.9961 2.59082Z" fill="#719841" stroke="#2B3C1B" stroke-width="3"/>
<path d="M32.2524 27.4549C34.8149 28.7674 34.8149 28.7674 36.2524 30.4549C36.2524 31.4449 36.2524 32.4349 36.2524 33.4549C35.2624 33.4549 34.2724 33.4549 33.2524 33.4549C33.0049 34.0942 32.7574 34.7336 32.5024 35.3924C31.2524 37.4549 31.2524 37.4549 29.3774 37.9549C28.6762 38.1199 27.9749 38.2849 27.2524 38.4549C26.5924 39.1561 25.9324 39.8574 25.2524 40.5799C24.5924 41.1986 23.9324 41.8174 23.2524 42.4549C21.0649 42.3299 21.0649 42.3299 19.2524 41.4549C17.6831 38.3162 17.9004 35.9163 18.2524 32.4549C21.9176 26.8981 26.0572 26.3799 32.2524 27.4549Z" fill="#648A3F"/>
<path d="M59.2524 27.4549C61.8149 28.7674 61.8149 28.7674 63.2524 30.4549C63.2524 31.4449 63.2524 32.4349 63.2524 33.4549C62.2624 33.4549 61.2724 33.4549 60.2524 33.4549C60.0049 34.0942 59.7574 34.7336 59.5024 35.3924C58.2524 37.4549 58.2524 37.4549 56.3774 37.9549C55.6762 38.1199 54.9749 38.2849 54.2524 38.4549C53.5924 39.1561 52.9324 39.8574 52.2524 40.5799C51.5924 41.1986 50.9324 41.8174 50.2524 42.4549C48.0649 42.3299 48.0649 42.3299 46.2524 41.4549C44.6831 38.3162 44.9004 35.9163 45.2524 32.4549C48.9176 26.8981 53.0572 26.3799 59.2524 27.4549Z" fill="#648A3F"/>
<path d="M33.2524 49.4549C35.8149 50.7674 35.8149 50.7674 37.2524 52.4549C37.2524 53.4449 37.2524 54.4349 37.2524 55.4549C36.2624 55.4549 35.2724 55.4549 34.2524 55.4549C34.0049 56.0942 33.7574 56.7336 33.5024 57.3924C32.2524 59.4549 32.2524 59.4549 30.3774 59.9549C29.6762 60.1199 28.9749 60.2849 28.2524 60.4549C27.5924 61.1561 26.9324 61.8574 26.2524 62.5799C25.5924 63.1986 24.9324 63.8174 24.2524 64.4549C22.0649 64.3299 22.0649 64.3299 20.2524 63.4549C18.6831 60.3162 18.9004 57.9163 19.2524 54.4549C22.9176 48.8981 27.0572 48.3799 33.2524 49.4549Z" fill="#648A3F"/>
<path d="M65.2524 34.4549C67.8149 35.7674 67.8149 35.7674 69.2524 37.4549C69.2524 38.4449 69.2524 39.4349 69.2524 40.4549C68.2624 40.4549 67.2724 40.4549 66.2524 40.4549C66.0049 41.0942 65.7574 41.7336 65.5024 42.3924C64.2524 44.4549 64.2524 44.4549 62.3774 44.9549C61.6762 45.1199 60.9749 45.2849 60.2524 45.4549C59.5924 46.1561 58.9324 46.8574 58.2524 47.5799C57.5924 48.1986 56.9324 48.8174 56.2524 49.4549C54.0649 49.3299 54.0649 49.3299 52.2524 48.4549C50.6831 45.3162 50.9004 42.9163 51.2524 39.4549C54.9176 33.8981 59.0572 33.3799 65.2524 34.4549Z" fill="#648A3F"/>
</svg>
