<svg width="239" height="130" viewBox="0 0 239 130" fill="none" xmlns="http://www.w3.org/2000/svg">
<path d="M230.981 0.836914C234.751 0.0744567 237.014 0.779454 238.062 1.24805V122.809L1.02148 129.399L1.82617 128.326C3.4857 127.522 5.37517 127.226 7.36035 127.139C9.40982 127.048 11.4493 127.178 13.4717 127.175H13.4883C15.4552 127.106 16.9526 126.982 18.3438 126.524C19.7467 126.063 21.0052 125.275 22.5322 123.938L22.5576 123.916L22.5801 123.891L24.832 121.309C29.0527 118.542 32.8444 116.39 37.7881 116.552L40.3418 117.403L40.3633 117.41L40.3848 117.415L42.7451 117.974V117.975L44.3701 118.412L44.7988 118.527L44.9639 118.114L46.8379 113.429H50V111.429H58.8086L58.9473 111.152L60.9092 107.227C61.3666 106.77 61.5397 106.617 61.9707 106.496C62.4959 106.349 63.3478 106.273 65.2031 106.116C67.4152 106.13 69.039 106.495 70.5293 107.183C72.0373 107.879 73.4326 108.915 75.1875 110.319L75.8613 110.858L75.9941 110.006L76.4189 107.271C77.2914 105.496 77.8082 104.652 78.499 104.08C79.2039 103.496 80.1226 103.163 81.9502 102.534C85.2113 101.635 88.1119 101.104 91.4521 101.427L91.8838 101.469L91.9863 101.046L92.4219 99.2412C93.0695 96.7228 93.3727 95.5592 93.8027 94.7715C94.2056 94.0335 94.7197 93.6251 95.9395 92.6914C99.0454 91.2324 101.12 91.0592 104.617 91.1162H104.623L107.728 91.127C109.102 91.2778 109.709 91.35 110.347 91.6055C110.971 91.8557 111.632 92.2852 113 93.1963V95.5684L113.621 95.4141L115.379 94.9766L115.378 94.9756C119.869 93.9086 123.878 93.193 128.475 93.4287L128.936 93.4521L128.996 92.9932L129.37 90.1279C129.685 88.552 129.83 87.8588 130.117 87.2979C130.392 86.7622 130.803 86.3337 131.749 85.3867C136.225 84.3898 140.617 84.116 145 85.3076V87.5381L145.598 87.4189L147.789 86.9814L147.79 86.9824C151.942 86.1852 153.989 85.7931 155.502 85.624C156.994 85.4574 157.961 85.5074 159.974 85.6152L160.005 85.6172L160.037 85.6152L162.537 85.4277L162.766 85.4102L162.902 85.2256C163.703 84.1411 164.122 83.5745 164.512 82.9248C164.895 82.2856 165.248 81.5678 165.923 80.1992C167.661 77.9735 169.429 76.0389 171.687 74.4111C173.298 74.2322 174.084 74.1475 174.781 74.1475C175.488 74.1475 176.107 74.2349 177.43 74.4238L178.028 74.5098L177.999 73.9053L177.813 70.0107C177.991 68.2171 178.245 67.0644 178.744 66.0391C179.246 65.008 180.013 64.0676 181.288 62.7275C185.955 58.9315 188.224 57.092 190.054 56.1885C191.827 55.3127 193.172 55.3241 196.118 55.3662H196.119L198.593 55.3926V55.3936L200.491 55.4287L200.926 55.4365L200.994 55.0068L201.368 52.627C202.028 49.2706 202.719 46.5403 203.914 44.1279C205.101 41.7324 206.796 39.6291 209.498 37.5537C213.03 35.6949 216.451 35.3632 220.492 35.4287L221.083 35.4385L220.994 34.8535L220.707 32.958C219.948 27.0951 219.922 22.7206 221.926 17.2197C222.866 16.397 223.334 15.9908 223.8 15.6416C224.279 15.2821 224.759 14.9813 225.765 14.3525L225.859 14.2939L225.92 14.2002C226.974 12.5649 227.247 11.3543 227.329 10.0117C227.411 8.6711 227.311 7.35508 227.62 5.25195L227.63 5.18066L227.62 5.11035C227.573 4.76966 227.596 4.34203 227.625 3.8418C227.648 3.44636 227.674 3.00223 227.644 2.5918C228.361 1.75671 228.9 1.29726 229.29 1.05664C229.702 0.80308 229.907 0.815838 229.972 0.829102C230.037 0.842361 230.07 0.876701 230.106 0.918945C230.11 0.922803 230.122 0.936631 230.13 0.945312C230.136 0.951727 230.161 0.981373 230.194 1.00977C230.21 1.02325 230.254 1.05907 230.318 1.08789C230.38 1.11532 230.543 1.17183 230.73 1.08789C230.876 1.02261 230.947 0.911321 230.981 0.836914Z" fill="#5B803B" stroke="black"/>
<path d="M37.0894 118.223C38.6337 119.072 38.6337 119.072 39.5 120.164C39.5 120.805 39.5 121.445 39.5 122.105C38.9034 122.105 38.3067 122.105 37.692 122.105C37.5429 122.519 37.3937 122.933 37.24 123.359C36.4867 124.694 36.4867 124.694 35.3567 125.017C34.9341 125.124 34.5115 125.231 34.0761 125.341C33.6783 125.794 33.2806 126.248 32.8707 126.716C32.473 127.116 32.0752 127.516 31.6654 127.929C30.3471 127.848 30.3471 127.848 29.2548 127.282C28.309 125.251 28.44 123.698 28.6521 121.458C30.861 117.863 33.3557 117.528 37.0894 118.223Z" fill="#648A3F"/>
<path d="M79.0894 115.223C80.6337 116.072 80.6337 116.072 81.5 117.164C81.5 117.805 81.5 118.445 81.5 119.105C80.9034 119.105 80.3067 119.105 79.692 119.105C79.5429 119.519 79.3937 119.933 79.24 120.359C78.4867 121.694 78.4867 121.694 77.3567 122.017C76.9341 122.124 76.5115 122.231 76.0761 122.341C75.6783 122.794 75.2806 123.248 74.8707 123.716C74.473 124.116 74.0752 124.516 73.6654 124.929C72.3471 124.848 72.3471 124.848 71.2548 124.282C70.309 122.251 70.44 120.698 70.6521 118.458C72.861 114.863 75.3557 114.528 79.0894 115.223Z" fill="#648A3F"/>
<path d="M85.0894 115.223C86.6337 116.072 86.6337 116.072 87.5 117.164C87.5 117.805 87.5 118.445 87.5 119.105C86.9034 119.105 86.3067 119.105 85.692 119.105C85.5429 119.519 85.3937 119.933 85.24 120.359C84.4867 121.694 84.4867 121.694 83.3567 122.017C82.9341 122.124 82.5115 122.231 82.0761 122.341C81.6783 122.794 81.2806 123.248 80.8707 123.716C80.473 124.116 80.0752 124.516 79.6654 124.929C78.3471 124.848 78.3471 124.848 77.2548 124.282C76.309 122.251 76.44 120.698 76.6521 118.458C78.861 114.863 81.3557 114.528 85.0894 115.223Z" fill="#648A3F"/>
<path d="M180.752 78.3837C183.315 79.6962 183.315 79.6962 184.752 81.3837C184.752 82.3737 184.752 83.3637 184.752 84.3837C183.762 84.3837 182.772 84.3837 181.752 84.3837C181.505 85.0231 181.257 85.6625 181.002 86.3212C179.752 88.3837 179.752 88.3837 177.877 88.8837C177.176 89.0487 176.475 89.2137 175.752 89.3837C175.092 90.085 174.432 90.7862 173.752 91.5087C173.092 92.1275 172.432 92.7462 171.752 93.3837C169.565 93.2587 169.565 93.2587 167.752 92.3837C166.183 89.245 166.4 86.8452 166.752 83.3837C170.418 77.8269 174.557 77.3088 180.752 78.3837Z" fill="#648A3F"/>
<path d="M221.752 39.3837C224.315 40.6962 224.315 40.6962 225.752 42.3837C225.752 43.3737 225.752 44.3637 225.752 45.3837C224.762 45.3837 223.772 45.3837 222.752 45.3837C222.505 46.0231 222.257 46.6625 222.002 47.3212C220.752 49.3837 220.752 49.3837 218.877 49.8837C218.176 50.0487 217.475 50.2137 216.752 50.3837C216.092 51.085 215.432 51.7862 214.752 52.5087C214.092 53.1275 213.432 53.7462 212.752 54.3837C210.565 54.2587 210.565 54.2587 208.752 53.3837C207.183 50.245 207.4 47.8452 207.752 44.3837C211.418 38.8269 215.557 38.3088 221.752 39.3837Z" fill="#648A3F"/>
<path d="M110.752 103.384C113.315 104.696 113.315 104.696 114.752 106.384C114.752 107.374 114.752 108.364 114.752 109.384C113.762 109.384 112.772 109.384 111.752 109.384C111.505 110.023 111.257 110.662 111.002 111.321C109.752 113.384 109.752 113.384 107.877 113.884C107.176 114.049 106.475 114.214 105.752 114.384C105.092 115.085 104.432 115.786 103.752 116.509C103.092 117.127 102.432 117.746 101.752 118.384C99.5649 118.259 99.5649 118.259 97.7524 117.384C96.1831 114.245 96.4004 111.845 96.7524 108.384C100.418 102.827 104.557 102.309 110.752 103.384Z" fill="#648A3F"/>
</svg>
