<svg width="235" height="160" viewBox="0 0 235 160" fill="none" xmlns="http://www.w3.org/2000/svg">
<path d="M234.5 156.729L2.49316 158.794C1.89549 158.777 1.29778 158.76 0.69043 158.743C1.0592 157.656 1.27453 157.12 1.64062 156.662C2.07278 156.122 2.72464 155.675 4.2002 154.691C5.81883 154.317 7.44532 153.984 9.08008 153.719L9.46973 153.655L9.49902 153.261L9.68262 150.741L9.68164 150.74L9.93555 147.451L9.93652 147.45C10.0177 146.371 10.098 145.291 10.1816 144.18C10.3396 142.723 10.4167 142.027 10.5732 141.323C10.7185 140.67 10.9346 140.006 11.3613 138.725H13.3857L13.4834 138.353C13.6848 137.587 13.8856 136.821 14.0928 136.034C14.7779 134.727 15.081 134.164 15.5068 133.745C15.9307 133.328 16.4894 133.039 17.7881 132.39C23.6494 131.206 28.995 131.533 34.9023 132.715L35.3818 132.812L35.4883 132.333L36.2324 128.984C36.6185 127.865 37.0039 126.745 37.4004 125.595C38.2183 125.237 38.2865 125.208 39.2471 124.788L39.2705 124.778L39.293 124.766L41.2461 123.66L41.4395 123.551L41.4883 123.334C41.7637 122.102 41.9104 121.445 41.9766 120.743C42.0421 120.047 42.0273 119.31 42 117.92C42.1065 116.07 42.1935 114.761 42.4795 113.513C42.7595 112.291 43.2352 111.109 44.1416 109.545C46.6404 107.332 48.7133 106.012 50.9668 105.253C53.2361 104.488 55.7302 104.277 59.0986 104.349C62.7561 104.832 65.6091 106.098 68.8857 107.887L68.8896 107.889C69.8653 108.408 70.5118 108.769 71.2881 108.733C71.6724 108.716 72.0611 108.605 72.5107 108.431C72.9591 108.257 73.5073 108.003 74.21 107.679L74.3105 107.632L74.3828 107.547C74.8068 107.042 75.2307 106.537 75.667 106.018C76.8124 105.051 77.8454 104.684 78.957 104.572C80.1227 104.456 81.3534 104.616 82.9668 104.724L83.5 104.759V102.634C85.0162 102.331 86.5359 102.027 88.0977 101.715L88.4814 101.639L88.499 101.247C88.5724 99.6204 88.5727 99.6192 88.6475 97.9619C88.7225 96.5167 88.7981 95.0712 88.874 93.626L88.875 93.6211L88.9688 91.4609L88.9678 91.46C89.2076 87.1121 89.8961 83.4978 91.4668 79.4043L91.4746 79.3828L92.5996 76.0078C92.8514 75.2526 93.1028 74.4972 93.3604 73.7246H95.3682L95.4775 73.373C95.6561 72.7978 95.834 72.2223 96.0176 71.6309C98.0322 68.599 100.528 67.5909 104.093 66.7168C107.159 66.3969 109.597 66.2032 111.875 66.543C114.142 66.8811 116.274 67.7539 118.694 69.6211L118.834 69.7285L119.01 69.7246C120.826 69.69 121.776 69.6723 122.688 69.542C123.603 69.4114 124.474 69.168 126.134 68.7061L126.348 68.6475L126.461 68.4209C126.461 68.4199 126.462 68.419 126.463 68.418L126.49 68.3633V68.3613L126.55 68.2441V68.2432L126.56 68.2236C126.564 68.2142 126.559 68.2265 126.563 68.2168L126.589 68.166C126.589 68.1648 126.589 68.1633 126.59 68.1621L126.6 68.1426L126.602 68.1406L126.672 68.001V68L126.699 67.9453C126.702 67.9395 126.702 67.9385 126.701 67.9395L126.729 67.8848V67.8838L126.741 67.8604L126.742 67.8594L126.757 67.8301V67.8291L126.78 67.7822L126.781 67.7812L126.843 67.6582C126.848 67.6483 126.841 67.6605 126.846 67.6504L126.847 67.6494L127.181 66.9805L127.183 66.9785L127.222 66.9004C127.222 66.8991 127.223 66.8968 127.224 66.8955L127.241 66.8604L127.242 66.8594L127.295 66.7549C127.295 66.7538 127.296 66.752 127.297 66.75L127.316 66.7109C127.317 66.7096 127.318 66.7074 127.318 66.7061L127.348 66.6475C127.348 66.6464 127.348 66.6446 127.349 66.6436C134.322 64.5906 140.938 65.7277 147.862 67.7061L148.528 67.8955L148.5 67.2041L148.395 64.6416C148.229 57.6775 148.659 52.723 151.457 46.4277L151.5 46.3311V43.2881L152.464 39.6973L153.875 37.3457L156.229 35.6748L159.158 34.6992L159.168 34.6963L161.9 33.7246H166.975C171.156 34.0463 175.338 34.3673 179.641 34.6982C180.076 35.8837 180.511 37.0694 180.946 38.2549L182.362 42.1123L182.365 42.1182C182.612 42.7634 182.809 43.2822 183.014 43.6885C183.223 44.1048 183.457 44.4405 183.795 44.707C184.128 44.9696 184.526 45.137 185.014 45.2793C185.497 45.4205 186.114 45.549 186.897 45.7139L187.407 45.8213L187.493 45.3066C187.493 45.3053 187.494 45.3041 187.494 45.3027C187.494 45.3013 187.495 45.2993 187.495 45.2979C187.495 45.2966 187.495 45.2952 187.495 45.2939C187.495 45.2926 187.496 45.2914 187.496 45.29C187.496 45.2886 187.497 45.2866 187.497 45.2852C187.497 45.2839 187.497 45.2825 187.497 45.2812L187.498 45.2793L187.53 45.085C187.53 45.0836 187.531 45.0824 187.531 45.0811L187.54 45.0283C187.542 45.0187 187.539 45.0296 187.541 45.0195C187.541 45.0182 187.542 45.0169 187.542 45.0156C187.542 45.0142 187.543 45.0122 187.543 45.0107C187.543 45.0079 187.543 45.0048 187.544 45.002L187.546 44.9941C187.546 44.9927 187.546 44.9907 187.546 44.9893C187.546 44.9879 187.547 44.9867 187.547 44.9854C187.547 44.9842 187.547 44.983 187.547 44.9824L187.563 44.8848C187.564 44.8834 187.564 44.8822 187.564 44.8809C187.565 44.8794 187.565 44.8774 187.565 44.876C187.566 44.8747 187.565 44.8733 187.565 44.8721C187.566 44.8679 187.567 44.8654 187.567 44.8643L187.574 44.8164C187.575 44.8119 187.575 44.8194 187.576 44.8105C187.576 44.809 187.577 44.8018 187.577 44.8018C187.583 44.7683 187.575 44.8183 187.58 44.7852L187.586 44.75C187.586 44.7485 187.587 44.7466 187.587 44.7451C187.587 44.7438 187.588 44.7425 187.588 44.7412C187.588 44.7398 187.588 44.7378 187.588 44.7363L187.589 44.7354V44.7305C187.59 44.7237 187.589 44.7331 187.591 44.7236C187.594 44.7064 187.589 44.7323 187.592 44.7148C187.592 44.7135 187.593 44.7123 187.593 44.7109C187.593 44.7095 187.594 44.7075 187.594 44.7061C187.594 44.7032 187.594 44.7001 187.595 44.6973C187.595 44.6959 187.595 44.6947 187.596 44.6934C187.596 44.6919 187.596 44.6899 187.597 44.6885C187.597 44.6864 187.597 44.6815 187.598 44.6797C187.598 44.6763 187.6 44.6667 187.601 44.6631L187.621 44.54C187.621 44.5387 187.622 44.5375 187.622 44.5361C187.622 44.5347 187.622 44.5327 187.622 44.5312C187.622 44.5299 187.623 44.5287 187.623 44.5273C187.623 44.5259 187.624 44.5239 187.624 44.5225C187.63 44.4893 187.621 44.5393 187.627 44.5059L187.633 44.4707C187.633 44.4692 187.634 44.4673 187.634 44.4658C187.634 44.4646 187.634 44.4632 187.634 44.4619C187.634 44.4605 187.635 44.4585 187.635 44.457C187.635 44.4557 187.636 44.4544 187.636 44.4531C187.636 44.4499 187.636 44.4476 187.637 44.4443C187.637 44.4417 187.638 44.4382 187.639 44.4355C187.637 44.4442 187.639 44.4326 187.64 44.4268L187.642 44.418C187.642 44.4167 187.641 44.4153 187.642 44.4141C187.642 44.4126 187.642 44.4106 187.643 44.4092C187.645 44.3948 187.642 44.4149 187.645 44.4004L187.653 44.3477C187.654 44.3421 187.655 44.3366 187.656 44.3311C187.658 44.3229 187.656 44.3298 187.657 44.3223C187.657 44.3208 187.658 44.3188 187.658 44.3174C187.658 44.3161 187.659 44.3148 187.659 44.3135L187.668 44.2607C187.668 44.2593 187.668 44.2573 187.668 44.2559L187.669 44.2539V44.25L187.67 44.2471C187.67 44.2458 187.671 44.2445 187.671 44.2432L187.68 44.1904C187.68 44.1892 187.679 44.1878 187.68 44.1865C187.68 44.1851 187.68 44.1831 187.681 44.1816C187.681 44.1803 187.681 44.1791 187.682 44.1777C187.682 44.1763 187.682 44.1743 187.683 44.1729C187.683 44.1716 187.682 44.1702 187.683 44.1689C187.683 44.1675 187.683 44.1655 187.684 44.1641C187.684 44.1627 187.684 44.1615 187.685 44.1602C187.685 44.1587 187.685 44.1567 187.686 44.1553C187.688 44.141 187.684 44.161 187.687 44.1465C187.688 44.1389 187.687 44.1455 187.688 44.1377C187.689 44.1364 187.688 44.1351 187.688 44.1338C187.689 44.1323 187.689 44.1304 187.689 44.1289C187.69 44.1256 187.691 44.1235 187.691 44.1201L187.715 43.9795C187.715 43.9782 187.715 43.9769 187.715 43.9756L187.716 43.9736L187.727 43.9092C187.728 43.9008 187.726 43.9091 187.728 43.9004C187.728 43.8991 187.728 43.8978 187.729 43.8965C187.729 43.895 187.729 43.8931 187.729 43.8916C187.73 43.8881 187.73 43.8864 187.73 43.8828C187.731 43.8815 187.731 43.8802 187.731 43.8789C187.732 43.8774 187.732 43.8755 187.732 43.874C187.733 43.8728 187.732 43.8714 187.732 43.8701L187.733 43.8682L187.737 43.8428C187.737 43.8419 187.738 43.8406 187.738 43.8389L187.75 43.7686C187.751 43.7606 187.75 43.7674 187.751 43.7598C187.752 43.7533 187.755 43.7407 187.753 43.751C187.756 43.7321 187.753 43.7518 187.756 43.7334C187.759 43.7157 187.756 43.7325 187.759 43.7148C187.762 43.6929 187.758 43.72 187.762 43.6973C187.762 43.696 187.762 43.6946 187.762 43.6934L187.763 43.6924L187.766 43.6748C187.766 43.674 187.766 43.6704 187.768 43.6621L187.773 43.627C187.774 43.6255 187.774 43.6235 187.774 43.6221C187.775 43.6208 187.774 43.6194 187.774 43.6182C187.775 43.6167 187.775 43.6148 187.775 43.6133C187.776 43.612 187.776 43.6107 187.776 43.6094C187.778 43.5983 187.776 43.6113 187.777 43.6006C187.782 43.5751 187.775 43.6168 187.779 43.5918C187.78 43.5903 187.78 43.5884 187.78 43.5869C187.78 43.5856 187.78 43.5843 187.78 43.583C187.781 43.5806 187.782 43.5768 187.782 43.5742C187.782 43.5727 187.783 43.5708 187.783 43.5693C187.783 43.5679 187.783 43.5659 187.783 43.5645C187.784 43.5595 187.784 43.5609 187.785 43.5557L187.8 43.4678C187.803 43.448 187.799 43.469 187.803 43.4492L187.809 43.4141C187.809 43.4126 187.809 43.4107 187.81 43.4092C187.81 43.4079 187.81 43.4066 187.811 43.4053C187.811 43.4038 187.81 43.4019 187.811 43.4004C187.811 43.3991 187.811 43.3978 187.812 43.3965C187.817 43.3611 187.809 43.4136 187.814 43.3789C187.82 43.3466 187.812 43.3927 187.817 43.3604L187.82 43.3428C187.821 43.3415 187.821 43.3402 187.821 43.3389L187.823 43.3291C187.823 43.3278 187.823 43.3265 187.823 43.3252C187.823 43.3237 187.824 43.3218 187.824 43.3203C187.824 43.319 187.825 43.3177 187.825 43.3164C187.825 43.3149 187.826 43.313 187.826 43.3115C187.826 43.3103 187.826 43.3089 187.826 43.3076C187.826 43.3061 187.827 43.3042 187.827 43.3027C187.827 43.3014 187.828 43.3001 187.828 43.2988C187.828 43.2973 187.829 43.2954 187.829 43.2939C187.829 43.2925 187.829 43.2905 187.829 43.2891C187.829 43.2877 187.83 43.2865 187.83 43.2852C187.83 43.2837 187.831 43.2818 187.831 43.2803C187.834 43.262 187.829 43.2902 187.832 43.2715L187.835 43.2539C187.836 43.2494 187.838 43.241 187.839 43.2363C187.844 43.2039 187.836 43.2502 187.842 43.2178L187.845 43.2002C187.847 43.1872 187.844 43.2043 187.846 43.1914C187.846 43.1899 187.846 43.188 187.847 43.1865C187.847 43.1852 187.847 43.1839 187.848 43.1826C187.851 43.1621 187.847 43.1846 187.851 43.1641L187.856 43.1289C187.857 43.1246 187.857 43.1242 187.857 43.1201L187.859 43.1104C187.865 43.0748 187.856 43.1291 187.862 43.0928C187.863 43.0915 187.863 43.0902 187.863 43.0889C187.864 43.0874 187.863 43.0854 187.863 43.084C187.864 43.0798 187.865 43.0793 187.865 43.0752C187.866 43.0731 187.865 43.071 187.865 43.0693C188.441 40.5374 189.017 38.7037 190.369 36.5771L195.096 33.3242L195.155 33.2832L195.2 33.2275C197.783 30.0544 199.538 28.4484 203.217 26.6748L203.287 26.6416L203.344 26.5879C205.845 24.224 206.938 23.325 207.829 22.7637C208.274 22.4836 208.674 22.2841 209.2 22.0215C209.726 21.7591 210.361 21.4416 211.248 20.9346L211.307 20.9014L211.354 20.8535L217.461 14.7461L217.49 14.5977C217.733 13.3826 217.972 12.7639 218.145 12.375C218.285 12.0577 218.458 11.7584 218.492 11.3623C219.504 9.44542 220.421 8.0019 221.574 6.8252C222.739 5.63709 224.166 4.69809 226.225 3.83887L228.357 3.07031L228.358 3.06934L230.526 2.28027L230.537 2.27637L234.5 0.731445V156.729Z" fill="#92BA56" stroke="#2B3C1B"/>
<path d="M29.2524 138.455C31.8149 139.767 31.8149 139.767 33.2524 141.455C33.2524 142.445 33.2524 143.435 33.2524 144.455C32.2624 144.455 31.2724 144.455 30.2524 144.455C30.0049 145.094 29.7574 145.734 29.5024 146.392C28.2524 148.455 28.2524 148.455 26.3774 148.955C25.6762 149.12 24.9749 149.285 24.2524 149.455C23.5924 150.156 22.9324 150.857 22.2524 151.58C21.5924 152.199 20.9324 152.817 20.2524 153.455C18.0649 153.33 18.0649 153.33 16.2524 152.455C14.6831 149.316 14.9004 146.916 15.2524 143.455C18.9176 137.898 23.0572 137.38 29.2524 138.455Z" fill="#648A3F"/>
<path d="M226.252 24.4549C228.815 25.7674 228.815 25.7674 230.252 27.4549C230.252 28.4449 230.252 29.4349 230.252 30.4549C229.262 30.4549 228.272 30.4549 227.252 30.4549C227.005 31.0942 226.757 31.7336 226.502 32.3924C225.252 34.4549 225.252 34.4549 223.377 34.9549C222.676 35.1199 221.975 35.2849 221.252 35.4549C220.592 36.1561 219.932 36.8574 219.252 37.5799C218.592 38.1986 217.932 38.8174 217.252 39.4549C215.065 39.3299 215.065 39.3299 213.252 38.4549C211.683 35.3162 211.9 32.9163 212.252 29.4549C215.918 23.8981 220.057 23.3799 226.252 24.4549Z" fill="#648A3F"/>
<path d="M95.2524 123.455C97.8149 124.767 97.8149 124.767 99.2524 126.455C99.2524 127.445 99.2524 128.435 99.2524 129.455C98.2624 129.455 97.2724 129.455 96.2524 129.455C96.0049 130.094 95.7574 130.734 95.5024 131.392C94.2524 133.455 94.2524 133.455 92.3774 133.955C91.6762 134.12 90.9749 134.285 90.2524 134.455C89.5924 135.156 88.9324 135.857 88.2524 136.58C87.5924 137.199 86.9324 137.817 86.2524 138.455C84.0649 138.33 84.0649 138.33 82.2524 137.455C80.6831 134.316 80.9004 131.916 81.2524 128.455C84.9176 122.898 89.0572 122.38 95.2524 123.455Z" fill="#648A3F"/>
<path d="M97.5947 79.4248C99.5982 78.8153 101.946 78.9065 104.935 79.415C106.152 80.0392 106.674 80.3142 107.074 80.6143C107.422 80.8748 107.684 81.1604 108.252 81.8242V83.4551H105.567L105.32 84.0938C105.083 84.7056 104.846 85.3175 104.603 85.9463C103.967 86.9929 103.76 87.3063 103.54 87.4863C103.354 87.6388 103.134 87.7169 102.124 87.9863C101.431 88.1494 100.738 88.3134 100.023 88.4814L99.7305 88.5508L99.5244 88.7695C98.8715 89.4633 98.2182 90.1568 97.5459 90.8711C96.9953 91.3873 96.4443 91.9033 95.8818 92.4307C95.0583 92.3815 94.6884 92.3491 94.3545 92.2656C94.0222 92.1825 93.7122 92.0459 93.0039 91.7061C91.7659 89.0655 91.8998 86.9988 92.2217 83.8066C93.9174 81.303 95.6538 80.0153 97.5947 79.4248Z" fill="#648A3F" stroke="#719841" stroke-width="2"/>
<path d="M52.5947 109.425C54.5982 108.815 56.9463 108.906 59.9346 109.415C61.1524 110.039 61.6742 110.314 62.0742 110.614C62.4217 110.875 62.6836 111.16 63.252 111.824V113.455H60.5674L60.3203 114.094C60.0835 114.706 59.846 115.317 59.6025 115.946C58.9675 116.993 58.7596 117.306 58.54 117.486C58.3541 117.639 58.1342 117.717 57.124 117.986C56.4308 118.149 55.7376 118.313 55.0234 118.481L54.7305 118.551L54.5244 118.77C53.8715 119.463 53.2182 120.157 52.5459 120.871C51.9953 121.387 51.4443 121.903 50.8818 122.431C50.0583 122.382 49.6884 122.349 49.3545 122.266C49.0222 122.183 48.7122 122.046 48.0039 121.706C46.7659 119.065 46.8998 116.999 47.2217 113.807C48.9174 111.303 50.6538 110.015 52.5947 109.425Z" fill="#648A3F" stroke="#719841" stroke-width="2"/>
<path d="M172.252 70.4549C174.815 71.7674 174.815 71.7674 176.252 73.4549C176.252 74.4449 176.252 75.4349 176.252 76.4549C175.262 76.4549 174.272 76.4549 173.252 76.4549C173.005 77.0942 172.757 77.7336 172.502 78.3924C171.252 80.4549 171.252 80.4549 169.377 80.9549C168.676 81.1199 167.975 81.2849 167.252 81.4549C166.592 82.1561 165.932 82.8574 165.252 83.5799C164.592 84.1986 163.932 84.8174 163.252 85.4549C161.065 85.3299 161.065 85.3299 159.252 84.4549C157.683 81.3162 157.9 78.9163 158.252 75.4549C161.918 69.8981 166.057 69.3799 172.252 70.4549Z" fill="#648A3F"/>
<path d="M184.055 96.5592C186.582 98.1728 186.582 98.1728 188 100.247C188 101.464 188 102.682 188 103.936C187.024 103.936 186.047 103.936 185.041 103.936C184.797 104.722 184.553 105.508 184.302 106.317C183.069 108.853 183.069 108.853 181.22 109.468C180.529 109.671 179.837 109.873 179.124 110.082C178.474 110.945 177.823 111.807 177.152 112.695C176.501 113.456 175.85 114.216 175.18 115C173.023 114.846 173.023 114.846 171.235 113.771C169.687 109.912 169.902 106.962 170.249 102.706C173.863 95.8747 177.946 95.2377 184.055 96.5592Z" fill="#648A3F"/>
<path d="M211.252 56.4549C213.815 57.7674 213.815 57.7674 215.252 59.4549C215.252 60.4449 215.252 61.4349 215.252 62.4549C214.262 62.4549 213.272 62.4549 212.252 62.4549C212.005 63.0942 211.757 63.7336 211.502 64.3924C210.252 66.4549 210.252 66.4549 208.377 66.9549C207.676 67.1199 206.975 67.2849 206.252 67.4549C205.592 68.1561 204.932 68.8574 204.252 69.5799C203.592 70.1986 202.932 70.8174 202.252 71.4549C200.065 71.3299 200.065 71.3299 198.252 70.4549C196.683 67.3162 196.9 64.9163 197.252 61.4549C200.918 55.8981 205.057 55.3799 211.252 56.4549Z" fill="#648A3F"/>
</svg>
