<svg height="100%" width="100%"  viewBox="0 0 660 476" fill="none" xmlns="http://www.w3.org/2000/svg">
<g clip-path="url(#clip0_42_129)">
<path d="M327.411 25.2228C328.511 25.2221 328.511 25.2221 329.633 25.2213C358.954 25.2032 388.229 25.8214 417.502 27.5746C419.028 27.665 419.028 27.665 420.585 27.7573C437.925 28.7996 455.116 30.3581 472.334 32.6383C474.68 32.9456 477.028 33.243 479.376 33.5386C508.996 37.2731 538.31 41.917 567.32 49.0346C567.934 49.1833 568.549 49.3321 569.182 49.4854C584.312 53.1821 597.796 57.9808 606.606 71.5565C621.866 97.6997 629.971 128.035 633.41 157.955C633.561 159.261 633.717 160.566 633.877 161.87C635.401 174.418 635.815 186.83 635.766 199.464C635.756 202.534 635.766 205.604 635.778 208.674C635.791 226.5 634.732 244.188 631.578 261.753C631.38 262.878 631.181 264.003 630.977 265.162C628.151 280.58 624.641 295.951 618.574 310.435C618.121 311.613 617.675 312.794 617.235 313.977C610.784 330.886 602.88 345.353 585.643 353.083C550.26 366.587 509.317 371.162 471.753 374.741C467.853 375.12 464.017 375.655 460.153 376.299C453.637 377.335 447.131 377.735 440.551 378.064C437.023 378.24 433.496 378.437 429.969 378.633C428.917 378.691 428.917 378.691 427.843 378.75C422.771 379.036 417.71 379.402 412.648 379.835C393.587 381.449 374.67 382.087 355.545 381.683C350.221 381.579 344.897 381.523 339.573 381.46C332.864 381.381 326.155 381.286 319.447 381.129C313.957 381.001 308.469 380.929 302.978 380.894C300.903 380.871 298.827 380.828 296.753 380.764C285.57 379.982 285.57 379.982 275.843 384.339C273.904 387.23 272.547 390.036 271.155 393.217C251.052 421.184 221.195 439.57 188.302 448.719C189.883 445.423 191.804 442.779 194.069 439.9C198.754 433.794 202.69 427.355 206.191 420.498C206.773 419.379 206.773 419.379 207.367 418.237C210.709 411.427 212.247 404.787 213.488 397.333C213.683 396.239 213.879 395.145 214.08 394.018C215.115 388.12 215.963 382.244 216.548 376.285C215.619 376.317 215.619 376.317 214.672 376.351C208.884 376.46 203.225 376.153 197.479 375.48C196.746 375.396 196.014 375.312 195.259 375.226C187.703 374.353 180.158 373.398 172.617 372.407C170.353 372.11 168.087 371.819 165.822 371.528C156.628 370.332 147.504 368.905 138.387 367.222C136.593 366.891 134.798 366.568 133.002 366.246C119.748 363.854 106.567 361.225 93.5031 357.943C91.6821 357.486 89.8584 357.039 88.0346 356.593C72.4806 352.569 61.2833 346.105 52.9968 332.229C24.2041 281.363 19.5003 212.05 28.2454 155.217C28.4069 154.138 28.5685 153.058 28.735 151.946C33.2232 122.687 40.3121 79.8854 64.9643 60.2055C67.6946 58.3854 70.4561 56.8671 73.438 55.502C74.347 55.063 75.256 54.624 76.1926 54.1717C81.5142 51.9172 87.198 50.7482 92.7978 49.3873C93.915 49.1097 95.0322 48.832 96.1832 48.5459C106.583 45.9835 117.002 43.6322 127.582 41.9498C130.157 41.5125 132.714 41.0407 135.276 40.5388C136.09 40.3799 136.904 40.2209 137.742 40.0572C139.311 39.7486 140.88 39.4363 142.448 39.1188C158.168 36.0374 174.159 34.2542 190.068 32.4545C191.398 32.304 191.398 32.304 192.755 32.1503C211.328 30.063 229.905 28.4361 248.559 27.2806C249.33 27.2315 250.101 27.1824 250.895 27.1318C276.393 25.5164 301.871 25.2266 327.411 25.2228Z" fill="#FBFAF9"/>
<path d="M333.884 11.994C335.553 11.9944 335.553 11.9944 337.255 11.9948C343.741 11.9971 350.226 12.0072 356.712 12.0284C358.719 12.0348 360.726 12.04 362.732 12.0439C365.518 12.0504 368.304 12.0631 371.09 12.0776C371.895 12.0787 372.7 12.0797 373.53 12.0808C378.314 12.1144 383.004 12.4247 387.759 12.955C390.314 13.2259 392.852 13.3194 395.42 13.3684C424.138 14.0589 452.537 16.7578 481.054 20.1665C482.783 20.3712 482.783 20.3712 484.547 20.5802C499.502 22.3626 514.321 24.5367 529.13 27.2806C530.496 27.5281 531.863 27.7752 533.229 28.0217C600.686 40.3007 600.686 40.3007 615.462 60.5068C628.472 80.035 635.93 102.426 641.17 125.115C641.385 126.026 641.599 126.937 641.821 127.876C657.308 194.689 654.388 280.881 618.952 341.217C617.642 343.253 616.268 345.193 614.807 347.123C614.362 347.743 613.917 348.364 613.458 349.004C606.173 358.297 594.654 363.942 583.737 367.818C583.162 368.029 582.587 368.24 581.994 368.457C575.374 370.79 568.574 372.295 561.73 373.815C561.095 373.957 560.46 374.1 559.806 374.246C546.821 377.149 533.777 379.713 520.656 381.929C520.048 382.032 519.439 382.136 518.812 382.243C485.683 387.83 451.898 391.256 418.384 393.57C417.245 393.649 416.106 393.729 414.933 393.81C397.816 394.94 380.74 395.189 363.589 395.172C360.141 395.169 356.694 395.171 353.247 395.175C342.865 395.184 332.487 395.169 322.107 395.027C317.758 394.977 313.41 394.968 309.061 394.969C307.016 394.96 304.971 394.933 302.926 394.886C292.039 394.215 292.039 394.215 282.441 398.28C280.511 400.91 279.134 403.445 277.746 406.387C276.738 407.708 275.695 409.005 274.598 410.253C273.864 411.108 273.864 411.108 273.116 411.979C272.624 412.54 272.133 413.1 271.626 413.678C271.096 414.284 270.565 414.89 270.019 415.514C266.269 419.746 262.446 423.605 257.974 427.083C257.079 427.802 256.183 428.521 255.26 429.262C229.334 449.85 195.456 465.252 161.863 466.119C160.057 465.652 160.057 465.652 158.34 464.039C157.233 461.889 157.233 461.889 157.258 459.56C158.435 456.509 159.978 455.176 162.47 453.07C163.322 452.336 164.174 451.603 165.051 450.847C165.889 450.145 166.726 449.443 167.589 448.719C186.138 433.055 198.155 412.646 201.484 388.514C200.147 388.45 200.147 388.45 198.784 388.385C188.934 387.867 179.237 386.763 169.472 385.398C167.935 385.187 166.398 384.975 164.861 384.764C153.638 383.21 142.452 381.479 131.294 379.509C129.171 379.139 127.047 378.788 124.92 378.445C63.1025 368.333 63.1025 368.333 46.1157 346.568C44.3982 343.992 42.891 341.384 41.4265 338.656C41.131 338.107 40.8355 337.558 40.531 336.992C38.1872 332.59 36.002 328.124 33.8944 323.605C33.6078 322.992 33.3213 322.378 33.026 321.747C22.4962 298.792 18.0447 273.81 14.8876 248.936C14.8077 248.309 14.7277 247.682 14.6453 247.036C6.7355 184.331 11.6634 109.389 49.194 56.2663C64.4179 40.7096 85.6376 36.841 106.097 32.5133C106.945 32.3324 107.793 32.1516 108.667 31.9652C125.978 28.291 143.361 25.3504 160.879 22.8619C162.786 22.5906 164.693 22.3145 166.599 22.0382C187.912 18.9819 209.328 16.988 230.786 15.2718C233.377 15.061 235.966 14.8385 238.556 14.6127C270.294 11.8899 302.054 11.9782 333.884 11.994ZM248.559 27.2806C247.746 27.3329 246.933 27.3853 246.095 27.4392C227.401 28.6556 208.781 30.2585 190.19 32.5845C187.314 32.9305 184.436 33.2363 181.554 33.5312C164.498 35.3057 147.714 38.2344 130.87 41.3913C129.926 41.5673 128.981 41.7432 128.008 41.9246C87.0306 47.8495 87.0306 47.8495 54.9019 71.1413C40.5841 92.902 34.1965 120.29 29.8342 145.575C29.6603 146.569 29.6603 146.569 29.4829 147.584C26.4013 165.415 25.0276 183.223 25.0677 201.312C25.0683 202.196 25.0688 203.08 25.0693 203.99C25.1858 248.28 30.4364 307.063 60.2568 342.419C69.5503 351.525 81.3312 354.9 93.6216 357.941C94.7065 358.214 94.7065 358.214 95.8132 358.493C108.324 361.646 120.885 364.265 133.613 366.391C136.44 366.864 139.262 367.36 142.084 367.862C157.424 370.552 172.847 372.514 188.302 374.403C189.215 374.517 190.127 374.632 191.067 374.749C193.342 375.034 195.617 375.309 197.894 375.579C199.073 375.72 200.251 375.86 201.465 376.005C206.478 376.478 211.519 376.341 216.548 376.285C215.965 380.342 215.374 384.399 214.782 388.455C214.619 389.596 214.455 390.736 214.286 391.911C211.349 411.966 203.941 428.43 190.719 443.994C189.067 445.909 189.067 445.909 188.302 448.719C197.786 446.234 206.666 442.339 215.606 438.372C216.219 438.1 216.832 437.828 217.463 437.548C231.583 431.171 243.72 422.279 254.732 411.475C255.995 410.244 257.285 409.042 258.577 407.842C265.305 401.458 273.384 393.011 276.805 384.207C278.688 381.929 278.688 381.929 280.388 381.507C282.714 381.36 284.998 381.37 287.328 381.425C288.659 381.428 288.659 381.428 290.016 381.432C292.973 381.445 295.929 381.491 298.886 381.536C300.968 381.549 303.05 381.56 305.133 381.569C310.654 381.598 316.175 381.653 321.695 381.716C331.451 381.823 341.207 381.891 350.963 381.947C352.021 381.954 353.078 381.961 354.168 381.968C372.981 382.075 391.679 381.428 410.446 380.175C413.796 379.954 417.147 379.75 420.498 379.543C438.808 378.408 457.106 377.094 475.296 374.666C477.562 374.375 479.831 374.114 482.102 373.856C505.777 371.115 529.524 367.387 552.722 361.887C554.727 361.414 556.735 360.951 558.744 360.495C586.419 354.427 586.419 354.427 606.569 335.713C613.062 325.07 617.34 313.697 621.398 301.968C621.636 301.29 621.874 300.611 622.119 299.911C626.611 286.833 629.66 273.193 631.99 259.578C632.132 258.77 632.274 257.963 632.42 257.132C635.293 239.362 635.906 221.395 635.874 203.429C635.873 201.874 635.873 201.874 635.873 200.288C635.838 181.893 634.683 163.968 631.755 145.81C631.583 144.729 631.412 143.647 631.236 142.532C627.057 117.103 619.347 90.0422 604.451 68.6719C604 68.0195 603.55 67.3671 603.086 66.6949C593.098 53.7121 574.507 50.5705 559.435 47.0943C558.752 46.9354 558.069 46.7765 557.365 46.6128C531.447 40.6094 505.26 36.6932 478.867 33.4614C476.079 33.1195 473.293 32.7678 470.508 32.4031C452.876 30.0944 435.254 28.6227 417.502 27.5746C416.545 27.5173 415.589 27.4601 414.603 27.4011C385.556 25.6935 356.501 25.2033 327.411 25.2228C326.659 25.2229 325.908 25.223 325.134 25.2231C299.57 25.228 274.077 25.6272 248.559 27.2806Z" fill="#3F2910"/>
<path d="M333.06 0.764373C334.081 0.764541 334.081 0.764541 335.122 0.764714C357.888 0.769445 380.571 1.23554 403.296 2.66727C405.95 2.83199 408.604 2.98827 411.258 3.14279C432.722 4.39584 454.12 5.81607 475.464 8.46645C476.891 8.64076 478.319 8.81484 479.746 8.98871C506.396 12.2452 532.739 16.0238 558.96 21.8858C561.911 22.539 564.866 23.1667 567.824 23.7861C587.155 27.8917 604.245 33.6853 618.573 47.9763C619.162 48.5535 619.751 49.1308 620.357 49.7255C645.072 75.8123 651.861 119.397 656.656 153.47C656.983 155.757 657.334 158.04 657.719 160.318C659.635 172.8 659.378 185.419 659.356 198.015C659.351 200.704 659.358 203.393 659.375 206.083C659.487 223.795 658.736 241.123 656.234 258.696C656.135 259.393 656.037 260.091 655.935 260.81C655.417 264.377 654.803 267.916 654.116 271.454C653.918 272.486 653.72 273.518 653.517 274.581C647.432 305.295 638.087 346.258 611.041 365.937C610.251 366.531 609.461 367.125 608.647 367.737C581.429 386.346 540.364 389.324 508.417 394.158C507.237 394.337 506.057 394.516 504.842 394.701C478.14 398.693 451.322 401.481 424.387 403.271C423.533 403.328 422.679 403.386 421.8 403.445C416.694 403.782 411.587 404.089 406.478 404.366C404.808 404.457 403.138 404.551 401.469 404.649C380.102 405.872 358.684 405.555 337.292 405.511C332.052 405.502 326.812 405.497 321.572 405.493C311.357 405.483 301.142 405.467 290.927 405.447C290.654 406.176 290.38 406.906 290.099 407.658C288.859 410.589 287.278 412.361 285.102 414.677C282.41 417.573 279.768 420.478 277.216 423.497C273.916 427.268 270.278 430.447 266.448 433.668C265.534 434.476 264.62 435.283 263.679 436.115C256.875 442.094 249.902 447.121 241.969 451.542C241.219 451.97 240.469 452.398 239.697 452.839C219.737 464.16 198.088 471.676 175.298 474.765C174.461 474.887 173.624 475.009 172.762 475.135C165.399 476.164 159.265 476.919 152.525 473.178C149.667 470.55 147.237 467.744 146.876 463.771C146.779 462.762 146.682 461.753 146.582 460.714C147.418 450.685 154.775 445.402 161.94 439.312C163.058 438.43 164.176 437.548 165.294 436.667C177.119 426.552 184.027 412.255 189.244 397.921C188.42 397.837 188.42 397.837 187.58 397.752C153.258 394.184 119.147 388.647 85.6188 380.459C84.5723 380.206 83.5259 379.954 82.4478 379.693C62.9417 374.777 44.7738 365.67 33.9717 347.981C16.5545 317.221 8.63875 283.832 4.00142 249.053C3.89257 248.238 3.78372 247.422 3.67157 246.582C-4.08237 184.509 0.583545 103.547 39.5435 51.7392C40.262 50.7691 40.9805 49.799 41.7208 48.7995C68.2228 20.4725 120.178 17.4209 156.51 12.5974C160.303 12.0616 164.074 11.4092 167.851 10.7698C191.647 6.85233 216.088 5.38119 240.132 3.87543C243.789 3.64551 247.446 3.40523 251.102 3.16392C278.412 1.39673 305.701 0.744098 333.06 0.764373ZM236.011 14.8371C233.416 15.0582 230.82 15.263 228.223 15.4634C184.323 18.8615 140.809 24.9004 97.7996 34.336C97.016 34.5049 96.2325 34.6738 95.4252 34.8479C87.3475 36.6004 79.4694 38.5687 71.7131 41.4501C70.8037 41.7878 70.8037 41.7878 69.8759 42.1324C64.4673 44.2392 60.0396 47.1757 55.5492 50.7985C54.9873 51.1865 54.4254 51.5746 53.8464 51.9744C37.611 63.9626 29.9139 89.6844 24.4793 108.182C24.2772 108.855 24.0752 109.529 23.867 110.223C11.3369 152.556 8.91126 198.959 14.1227 242.704C14.2186 243.575 14.3144 244.446 14.4132 245.344C18.4169 281.569 26.3193 331.261 55.5492 356.53C67.032 365.054 79.2601 368.231 92.9412 371.368C96.5202 372.189 100.081 373.056 103.631 373.994C118.584 377.83 133.938 379.967 149.171 382.399C150.074 382.544 150.978 382.688 151.909 382.837C176.569 387.163 176.569 387.163 201.484 388.514C198.116 406.512 192.053 422.581 179.829 436.49C179.031 437.412 178.234 438.333 177.413 439.283C172.398 444.974 167.185 449.922 161.201 454.606C159.079 456.207 159.079 456.207 157.233 458.127C157.565 462.363 157.565 462.363 160.057 465.652C166.84 466.576 173.638 465.094 180.241 463.653C181.228 463.441 182.215 463.228 183.232 463.009C204.427 458.305 225.119 451.014 242.91 438.372C243.825 437.742 244.74 437.113 245.683 436.464C250.967 432.751 255.807 428.718 260.545 424.334C262.33 422.702 264.148 421.184 266.036 419.675C269.595 416.645 272.454 413.086 275.389 409.463C275.764 409.016 276.138 408.568 276.525 408.107C277.868 406.33 277.868 406.33 278.897 403.862C280.694 400.471 282.253 398.436 285.278 396.04C291.865 394.06 299.174 394.8 305.966 394.956C308.052 394.965 310.139 394.969 312.226 394.968C316.657 394.975 321.085 395.012 325.516 395.073C335.89 395.212 346.265 395.188 356.64 395.178C360.073 395.176 363.507 395.18 366.94 395.184C384.47 395.189 401.899 394.689 419.385 393.453C420.547 393.371 421.709 393.29 422.907 393.206C442.865 391.768 462.758 389.678 482.607 387.155C486.388 386.675 490.172 386.234 493.959 385.806C503.978 384.672 513.915 383.378 523.818 381.466C526.903 380.873 529.992 380.298 533.08 379.72C580.703 372.216 580.703 372.216 617.481 343.731C621.269 337.964 624.215 331.763 627.047 325.486C627.54 324.396 628.033 323.306 628.54 322.183C635.043 306.834 639.262 290.431 642.579 274.124C642.944 272.383 643.331 270.647 643.727 268.913C657.832 206.278 652.601 122.769 619.456 66.4966C602.501 40.8662 575.622 36.6096 547.423 30.7606C546.777 30.6266 546.131 30.4926 545.466 30.3546C540.036 29.2442 534.586 28.2513 529.13 27.2807C527.646 27.0163 527.646 27.0163 526.131 26.7466C509.206 23.7646 492.298 21.3802 475.21 19.5122C471.511 19.1071 467.813 18.6887 464.116 18.2686C443.611 15.9681 423.074 14.0716 402.438 13.5816C400.22 13.5246 398.002 13.4646 395.784 13.4015C394.385 13.3677 394.385 13.3677 392.958 13.3333C390.431 13.2032 387.972 12.9791 385.46 12.6989C380.659 12.2135 375.914 12.084 371.09 12.0777C369.772 12.0708 369.772 12.0708 368.428 12.0638C365.536 12.0503 362.645 12.0439 359.753 12.0382C357.704 12.0317 355.655 12.025 353.606 12.0183C347.032 12 340.458 11.9956 333.884 11.9941C332.77 11.9936 331.656 11.993 330.508 11.9924C298.931 11.9813 267.49 12.1025 236.011 14.8371Z" fill="#FBFAF9"/>
</g>
<defs>
<clipPath id="clip0_42_129">
<rect width="660" height="476" fill="white"/>
</clipPath>
</defs>
</svg>
