<svg width="24" height="24" viewBox="0 0 24 24" fill="none" xmlns="http://www.w3.org/2000/svg">
<g clip-path="url(#clip0_17_2)">
<path d="M8.17417 0.033002C8.21442 0.0330132 8.25467 0.0330244 8.29614 0.0330359C8.90641 0.0347265 9.48314 0.0750726 10.0748 0.233307C10.1972 0.265825 10.3201 0.294554 10.4436 0.322944C11.0144 0.459683 11.5144 0.674112 12.027 0.953532C12.0847 0.984196 12.1424 1.01486 12.2018 1.04645C14.1375 2.11076 15.5253 3.88968 16.1309 5.97816C16.17 6.13967 16.2039 6.30007 16.2337 6.46347C16.2427 6.50325 16.2517 6.54303 16.2609 6.58402C16.3511 7.00839 16.3577 7.42177 16.3551 7.85419C16.3555 7.92324 16.3559 7.99229 16.3563 8.06342C16.3551 8.70018 16.2893 9.32466 16.1326 9.9436C16.1232 9.98129 16.1138 10.019 16.1041 10.0578C15.8971 10.8698 15.551 11.5806 15.118 12.2979C15.0988 12.3299 15.0796 12.3618 15.0598 12.3947C14.9283 12.6075 14.7813 12.7927 14.6157 12.98C14.688 13.1393 14.7667 13.2448 14.8955 13.3641C15.0746 13.5338 15.2351 13.7135 15.3936 13.9018C15.4794 14.0003 15.4794 14.0003 15.6405 14.0396C15.6761 14.0221 15.7117 14.0047 15.7483 13.9866C15.9568 13.9411 16.1328 13.9409 16.3416 13.9866C16.5506 14.1211 16.7168 14.2896 16.8879 14.4664C17.0046 14.5856 17.1243 14.7015 17.2443 14.8174C17.9558 15.5063 17.9558 15.5063 18.186 15.7724C18.4854 16.1142 18.82 16.4248 19.1461 16.7416C19.893 17.4674 19.893 17.4674 20.0865 17.6919C20.3959 18.0499 20.7482 18.3718 21.0877 18.7019C21.8944 19.4864 21.8944 19.4864 22.1702 19.8065C22.4475 20.1103 22.7509 20.3918 23.0461 20.6787C23.1831 20.8119 23.32 20.9453 23.4567 21.0787C23.5036 21.1242 23.5036 21.1242 23.5515 21.1706C23.872 21.4834 23.9419 21.7047 23.9663 22.139C23.969 22.1803 23.9716 22.2217 23.9743 22.2644C23.8946 22.677 23.551 22.9837 23.2584 23.2681C23.2226 23.3044 23.1867 23.3407 23.1497 23.3781C22.8578 23.6646 22.5561 23.9087 22.1406 23.9784C22.0846 23.9767 22.0285 23.9751 21.9708 23.9734C21.9145 23.9729 21.8582 23.9723 21.8002 23.9717C21.4018 23.9146 21.1656 23.7367 20.8989 23.4602C20.8683 23.4293 20.8378 23.3985 20.8063 23.3667C20.6166 23.174 20.434 22.9763 20.2574 22.772C20.1311 22.6311 19.9947 22.5011 19.8573 22.3708C19.755 22.2674 19.6587 22.1619 19.5626 22.0531C19.3654 21.8301 19.1608 21.6149 18.9539 21.4006C18.8776 21.3212 18.8013 21.2418 18.7249 21.1623C18.687 21.1229 18.649 21.0834 18.6099 21.0428C18.3512 20.7731 18.0944 20.5018 17.8372 20.2307C17.7415 20.1299 17.6457 20.0292 17.5498 19.9285C17.2637 19.6279 16.9781 19.3269 16.6955 19.0231C16.22 18.5123 15.7357 18.0095 15.2523 17.506C15.1089 17.3566 14.9659 17.2069 14.8229 17.0572C14.7293 16.9595 14.6353 16.8621 14.5412 16.7648C14.4874 16.7085 14.4336 16.6522 14.3798 16.5959C14.3338 16.5481 14.2877 16.5003 14.2403 16.451C14.0355 16.2028 13.9999 15.9981 14.0225 15.682C14.0567 15.5755 14.0924 15.4694 14.1304 15.3641C14.0952 15.3302 14.06 15.2962 14.0238 15.2613C13.7591 15.004 13.5046 14.7455 13.2674 14.4635C13.0564 14.4925 12.9359 14.5476 12.7686 14.6754C11.0085 15.9122 8.71656 16.2582 6.60437 15.9253C6.49069 15.9022 6.37865 15.8762 6.26631 15.8476C6.20782 15.8332 6.20782 15.8332 6.14815 15.8186C6.04011 15.7916 5.9324 15.7633 5.82474 15.735C5.77934 15.723 5.73394 15.7111 5.68716 15.6988C4.48938 15.342 3.38031 14.61 2.48091 13.7747C2.44052 13.7378 2.40013 13.701 2.35851 13.663C1.25281 12.6205 0.631142 11.2801 0.215746 9.85419C0.199661 9.80063 0.199661 9.80063 0.18325 9.74598C0.0326402 9.20963 0.0438908 8.64956 0.0439547 8.09738C0.043837 7.98406 0.0428542 7.87076 0.0418348 7.75744C0.0391468 7.12531 0.0985149 6.50737 0.27642 5.89724C0.293666 5.83793 0.293666 5.83793 0.311261 5.77741C0.629186 4.72836 1.14637 3.73609 1.88766 2.9138C1.93368 2.86223 1.9797 2.81067 2.02712 2.75755C3.1083 1.56297 4.50044 0.693662 6.07417 0.278035C6.11403 0.267501 6.15389 0.256966 6.19496 0.246112C6.85103 0.0820885 7.49989 0.0312603 8.17417 0.033002Z" fill="#DBE8E9" fill-opacity="0.2"/>
<path d="M8.17417 0.033002C8.21442 0.0330132 8.25467 0.0330244 8.29614 0.0330359C8.90641 0.0347265 9.48314 0.0750726 10.0748 0.233307C10.1972 0.265825 10.3201 0.294554 10.4436 0.322944C11.0144 0.459683 11.5144 0.674112 12.027 0.953532C12.0847 0.984196 12.1424 1.01486 12.2018 1.04645C14.1375 2.11076 15.5253 3.88968 16.1309 5.97816C16.17 6.13967 16.2039 6.30007 16.2337 6.46347C16.2427 6.50325 16.2517 6.54303 16.2609 6.58402C16.3511 7.00839 16.3577 7.42177 16.3551 7.85419C16.3555 7.92324 16.3559 7.99229 16.3563 8.06342C16.3551 8.70018 16.2893 9.32466 16.1326 9.9436C16.1232 9.98129 16.1138 10.019 16.1041 10.0578C15.8971 10.8698 15.551 11.5806 15.118 12.2979C15.0988 12.3299 15.0796 12.3618 15.0598 12.3947C14.9283 12.6075 14.7813 12.7927 14.6157 12.98C14.688 13.1393 14.7667 13.2448 14.8955 13.3641C15.0746 13.5338 15.2351 13.7135 15.3936 13.9018C15.4794 14.0003 15.4794 14.0003 15.6405 14.0396C15.6761 14.0221 15.7117 14.0047 15.7483 13.9866C15.9568 13.9411 16.1328 13.9409 16.3416 13.9866C16.5506 14.1211 16.7168 14.2896 16.8879 14.4664C17.0046 14.5856 17.1243 14.7015 17.2443 14.8174C17.9558 15.5063 17.9558 15.5063 18.186 15.7724C18.4854 16.1142 18.82 16.4248 19.1461 16.7416C19.893 17.4674 19.893 17.4674 20.0865 17.6919C20.3959 18.0499 20.7482 18.3718 21.0877 18.7019C21.8944 19.4864 21.8944 19.4864 22.1702 19.8065C22.4475 20.1103 22.7509 20.3918 23.0461 20.6787C23.1831 20.8119 23.32 20.9453 23.4567 21.0787C23.5036 21.1242 23.5036 21.1242 23.5515 21.1706C23.872 21.4834 23.9419 21.7047 23.9663 22.139C23.969 22.1803 23.9716 22.2217 23.9743 22.2644C23.8946 22.677 23.551 22.9837 23.2584 23.2681C23.2226 23.3044 23.1867 23.3407 23.1497 23.3781C22.8578 23.6646 22.5561 23.9087 22.1406 23.9784C22.0846 23.9767 22.0285 23.9751 21.9708 23.9734C21.9145 23.9729 21.8582 23.9723 21.8002 23.9717C21.4018 23.9146 21.1656 23.7367 20.8989 23.4602C20.8683 23.4293 20.8378 23.3985 20.8063 23.3667C20.6166 23.174 20.434 22.9763 20.2574 22.772C20.1311 22.6311 19.9947 22.5011 19.8573 22.3708C19.755 22.2674 19.6587 22.1619 19.5626 22.0531C19.3654 21.8301 19.1608 21.6149 18.9539 21.4006C18.8776 21.3212 18.8013 21.2418 18.7249 21.1623C18.687 21.1229 18.649 21.0834 18.6099 21.0428C18.3512 20.7731 18.0944 20.5018 17.8372 20.2307C17.7415 20.1299 17.6457 20.0292 17.5498 19.9285C17.2637 19.6279 16.9781 19.3269 16.6955 19.0231C16.22 18.5123 15.7357 18.0095 15.2523 17.506C15.1089 17.3566 14.9659 17.2069 14.8229 17.0572C14.7293 16.9595 14.6353 16.8621 14.5412 16.7648C14.4874 16.7085 14.4336 16.6522 14.3798 16.5959C14.3338 16.5481 14.2877 16.5003 14.2403 16.451C14.0355 16.2028 13.9999 15.9981 14.0225 15.682C14.0567 15.5755 14.0924 15.4694 14.1304 15.3641C14.0952 15.3302 14.06 15.2962 14.0238 15.2613C13.7591 15.004 13.5046 14.7455 13.2674 14.4635C13.0564 14.4925 12.9359 14.5476 12.7686 14.6754C11.0085 15.9122 8.71656 16.2582 6.60437 15.9253C6.49069 15.9022 6.37865 15.8762 6.26631 15.8476C6.20782 15.8332 6.20782 15.8332 6.14815 15.8186C6.04011 15.7916 5.9324 15.7633 5.82474 15.735C5.77934 15.723 5.73394 15.7111 5.68716 15.6988C4.48938 15.342 3.38031 14.61 2.48091 13.7747C2.44052 13.7378 2.40013 13.701 2.35851 13.663C1.25281 12.6205 0.631142 11.2801 0.215746 9.85419C0.199661 9.80063 0.199661 9.80063 0.18325 9.74598C0.0326402 9.20963 0.0438908 8.64956 0.0439547 8.09738C0.043837 7.98406 0.0428542 7.87076 0.0418348 7.75744C0.0391468 7.12531 0.0985149 6.50737 0.27642 5.89724C0.293666 5.83793 0.293666 5.83793 0.311261 5.77741C0.629186 4.72836 1.14637 3.73609 1.88766 2.9138C1.93368 2.86223 1.9797 2.81067 2.02712 2.75755C3.1083 1.56297 4.50044 0.693662 6.07417 0.278035C6.11403 0.267501 6.15389 0.256966 6.19496 0.246112C6.85103 0.0820885 7.49989 0.0312603 8.17417 0.033002ZM6.63372 1.80121C6.55551 1.81935 6.55551 1.81935 6.47572 1.83784C4.89164 2.22356 3.44842 3.32274 2.59805 4.6787C1.69977 6.15304 1.40612 7.8578 1.83372 9.53631C2.12493 10.6736 2.71614 11.6324 3.50563 12.5032C3.5365 12.538 3.56737 12.5729 3.59917 12.6087C4.38246 13.4377 5.48963 13.9499 6.57979 14.2515C6.64181 14.2696 6.70382 14.2876 6.76771 14.3062C7.22812 14.4187 7.68131 14.4249 8.15395 14.427C8.21738 14.4273 8.28081 14.4276 8.34616 14.4279C10.0343 14.4142 11.6273 13.7001 12.836 12.5562C13.2665 12.1231 13.6156 11.655 13.9146 11.1257C13.9433 11.0765 13.9719 11.0274 14.0014 10.9767C14.7377 9.63453 14.9324 7.98995 14.5618 6.51645C14.5474 6.45532 14.533 6.3942 14.5182 6.33122C14.1069 4.74934 13.0141 3.41965 11.611 2.57306C10.1219 1.70914 8.32623 1.35798 6.63372 1.80121Z" fill="#090909"/>
<path d="M8.14049 0.463541C8.1778 0.463487 8.21512 0.463434 8.25357 0.463379C8.82734 0.463934 9.36456 0.500299 9.92363 0.635726C10.0001 0.652589 10.0766 0.669349 10.1531 0.686016C10.5455 0.77402 10.912 0.880221 11.2719 1.05957C11.3349 1.08832 11.3978 1.11707 11.4626 1.14669C12.2783 1.52419 12.9806 2.00979 13.6236 2.62985C13.6911 2.69443 13.7601 2.75739 13.8293 2.82012C15.044 3.94577 15.8635 5.73326 15.9308 7.37068C15.9354 7.55732 15.9355 7.74375 15.9337 7.93043C15.9335 7.96981 15.9333 8.00919 15.9331 8.04976C15.9285 8.68946 15.88 9.29176 15.6944 9.90725C15.6794 9.95815 15.6643 10.0091 15.6488 10.0615C15.054 12.0306 13.811 13.6616 11.9815 14.6893C10.2504 15.6084 8.21718 15.8927 6.31015 15.4172C6.25092 15.4033 6.19168 15.3895 6.13065 15.3752C4.87234 15.0627 3.75961 14.3535 2.80453 13.5099C2.75176 13.4638 2.75176 13.4638 2.69793 13.4168C1.25571 12.0806 0.470759 10.0227 0.41297 8.10467C0.387359 6.12649 1.16018 4.28951 2.53487 2.86089C2.62367 2.77153 2.71348 2.68314 2.80453 2.59599C2.83088 2.5671 2.85723 2.53821 2.88438 2.50845C4.20889 1.10393 6.24189 0.465423 8.14049 0.463541ZM6.63374 1.80129C6.55553 1.81942 6.55553 1.81942 6.47574 1.83792C4.89166 2.22364 3.44844 3.32281 2.59807 4.67877C1.69979 6.15312 1.40614 7.85787 1.83374 9.53639C2.12495 10.6737 2.71616 11.6325 3.50565 12.5033C3.53652 12.5381 3.56739 12.5729 3.59919 12.6088C4.38248 13.4378 5.48965 13.95 6.57981 14.2516C6.64183 14.2696 6.70384 14.2877 6.76773 14.3063C7.22814 14.4188 7.68133 14.425 8.15397 14.4271C8.2174 14.4274 8.28083 14.4277 8.34618 14.428C10.0343 14.4143 11.6273 13.7002 12.836 12.5563C13.2666 12.1232 13.6156 11.6551 13.9146 11.1258C13.9433 11.0766 13.9719 11.0274 14.0014 10.9768C14.7377 9.6346 14.9324 7.99003 14.5618 6.51652C14.5474 6.4554 14.5331 6.39427 14.5182 6.3313C14.107 4.74941 13.0141 3.41973 11.611 2.57314C10.1219 1.70921 8.32625 1.35806 6.63374 1.80129Z" fill="#828285"/>
<path d="M16.1797 14.4107C16.3771 14.5427 16.5201 14.6921 16.6744 14.8697C16.8825 15.1047 17.1037 15.3243 17.3291 15.5431C17.3916 15.6042 17.3916 15.6042 17.4554 15.6666C17.5873 15.7955 17.7194 15.9243 17.8516 16.0531C18.0259 16.2229 18.2001 16.3929 18.3741 16.563C18.4331 16.6203 18.4331 16.6203 18.4933 16.6788C18.7086 16.8893 18.9128 17.1054 19.1111 17.3314C19.2444 17.4803 19.3865 17.6194 19.5303 17.7584C19.56 17.7874 19.5896 17.8163 19.6202 17.8462C19.7137 17.9373 19.8074 18.0284 19.901 18.1193C20.0248 18.2395 20.1484 18.3598 20.2718 18.4802C20.2994 18.5068 20.3269 18.5335 20.3553 18.5609C20.5025 18.7046 20.642 18.8518 20.7772 19.0066C21.0145 19.2758 21.2722 19.5238 21.53 19.7739C21.5823 19.8249 21.6346 19.8759 21.6868 19.927C21.9067 20.1417 22.1269 20.3561 22.3474 20.5704C22.483 20.7022 22.6184 20.8343 22.7536 20.9665C22.8297 21.0407 22.906 21.1146 22.9823 21.1885C23.0286 21.2337 23.0748 21.279 23.1225 21.3257C23.1632 21.3652 23.2038 21.4048 23.2457 21.4455C23.4502 21.6701 23.5322 21.8318 23.536 22.1373C23.4675 22.5025 23.214 22.7286 22.955 22.9769C22.9194 23.0121 22.8838 23.0472 22.8471 23.0834C22.3721 23.5449 22.3721 23.5449 21.9876 23.5531C21.9161 23.5565 21.9161 23.5565 21.8433 23.5599C21.4454 23.4702 21.1561 23.126 20.8921 22.8379C20.8261 22.7672 20.7602 22.6966 20.6942 22.6259C20.6445 22.5723 20.6445 22.5723 20.5937 22.5175C20.4372 22.3493 20.2786 22.183 20.1201 22.0167C20.0576 21.9508 19.9951 21.885 19.9326 21.8192C19.7984 21.678 19.6638 21.537 19.529 21.3962C18.9332 20.7736 18.9332 20.7736 18.6909 20.5067C18.4348 20.2246 18.17 19.9506 17.9058 19.6758C17.6972 19.4587 17.4901 19.2406 17.2853 19.02C17.0098 18.7232 16.7296 18.4309 16.449 18.1389C16.2216 17.9021 15.9959 17.6638 15.7718 17.4239C15.5813 17.22 15.3873 17.0211 15.1864 16.8271C15.0555 16.6963 14.9335 16.5587 14.8122 16.4194C14.756 16.3551 14.6987 16.2918 14.6399 16.2298C14.5345 16.1161 14.4598 16.0301 14.4294 15.8772C14.4644 15.6736 14.587 15.5704 14.7332 15.4331C14.7617 15.4053 14.7902 15.3776 14.8195 15.349C14.9105 15.2608 15.0024 15.1735 15.0943 15.0862C15.1558 15.0267 15.2173 14.967 15.2786 14.9074C15.8333 14.3714 15.8333 14.3714 16.1797 14.4107Z" fill="#694734"/>
<path d="M8.21122 1.24501C8.25098 1.24488 8.29075 1.24476 8.33171 1.24463C9.39806 1.246 10.3852 1.45748 11.3258 1.96024C11.4039 1.99855 11.4039 1.99855 11.4836 2.03764C12.0922 2.34376 12.6107 2.77291 13.1056 3.23176C13.15 3.2713 13.1943 3.31085 13.24 3.35159C14.2145 4.25372 14.7676 5.51539 15.0472 6.78143C15.0594 6.83217 15.0716 6.88292 15.0843 6.9352C15.4322 8.58973 14.9383 10.3826 14.017 11.7738C13.9152 11.915 13.8091 12.0505 13.6989 12.1854C13.6613 12.2336 13.6238 12.2817 13.5851 12.3313C12.8687 13.2285 11.9392 13.8336 10.8944 14.3046C10.838 14.3312 10.838 14.3312 10.7805 14.3584C10.4783 14.4976 10.1778 14.5861 9.8528 14.6589C9.80268 14.6703 9.75255 14.6816 9.70091 14.6933C9.34248 14.772 8.99713 14.8278 8.6292 14.8344C8.59067 14.8357 8.55214 14.837 8.51244 14.8383C6.69472 14.8967 4.98524 14.3192 3.61347 13.139C3.55048 13.0877 3.55048 13.0877 3.48622 13.0354C3.16232 12.766 2.89914 12.4638 2.64268 12.1324C2.58168 12.0538 2.58168 12.0538 2.51944 11.9737C2.18626 11.524 1.95147 11.051 1.72583 10.543C1.70303 10.4938 1.68022 10.4447 1.65673 10.394C1.04352 9.0067 1.11525 7.05077 1.64893 5.65146C1.73538 5.43954 1.83487 5.23582 1.94156 5.03309C1.9605 4.99689 1.97943 4.96069 1.99894 4.9234C2.24305 4.46353 2.50833 4.04625 2.85841 3.6556C2.91295 3.59158 2.91295 3.59158 2.9686 3.52626C4.29218 2.01289 6.20338 1.24904 8.21122 1.24501ZM6.6337 1.8013C6.55548 1.81943 6.55548 1.81943 6.47569 1.83793C4.89161 2.22365 3.4484 3.32282 2.59802 4.67878C1.69974 6.15312 1.40609 7.85788 1.8337 9.5364C2.1249 10.6737 2.71611 11.6325 3.50561 12.5033C3.53647 12.5381 3.56734 12.5729 3.59914 12.6088C4.38243 13.4378 5.4896 13.95 6.57976 14.2516C6.64178 14.2697 6.70379 14.2877 6.76768 14.3063C7.22809 14.4188 7.68128 14.425 8.15392 14.4271C8.21735 14.4274 8.28078 14.4277 8.34613 14.428C10.0342 14.4143 11.6272 13.7002 12.8359 12.5563C13.2665 12.1232 13.6155 11.6551 13.9146 11.1258C13.9432 11.0766 13.9719 11.0275 14.0014 10.9768C14.7377 9.63461 14.9324 7.99003 14.5618 6.51653C14.5474 6.45541 14.533 6.39428 14.5182 6.33131C14.1069 4.74942 13.0141 3.41973 11.611 2.57314C10.1218 1.70922 8.3262 1.35807 6.6337 1.8013Z" fill="#090909"/>
<path d="M9.04041 2.60592C9.07909 2.60867 9.11776 2.61142 9.15761 2.61425C9.46601 2.63979 9.74154 2.70001 10.0314 2.80791C10.0868 2.8271 10.1421 2.84629 10.1991 2.86607C10.867 3.10554 11.4183 3.43191 11.973 3.86751C12.0158 3.90071 12.0586 3.9339 12.1028 3.96809C12.6399 4.40844 13.2449 5.12183 13.4077 5.80501C13.4247 6.06521 13.3503 6.24401 13.1818 6.44367C12.9869 6.62991 12.7739 6.63508 12.5157 6.64173C12.3262 6.60895 12.1909 6.53247 12.0698 6.38367C12.0022 6.28595 11.9384 6.18658 11.8752 6.08606C11.2048 5.06562 10.2728 4.4103 9.06063 4.13241C8.9719 4.11679 8.88314 4.10131 8.79434 4.08606C8.53952 4.03459 8.37073 3.89472 8.19771 3.70857C8.09073 3.49839 8.11425 3.24834 8.14378 3.01983C8.33617 2.63504 8.63986 2.57563 9.04041 2.60592Z" fill="#090909"/>
<path d="M9.27641 3.0198C10.1073 3.19528 10.9581 3.51565 11.5955 4.0794C11.6396 4.11587 11.6837 4.15234 11.7291 4.18992C12.2234 4.60803 12.8134 5.19621 12.9729 5.83892C12.9795 5.9787 12.9527 6.07713 12.8832 6.19861C12.782 6.25159 12.782 6.25159 12.6236 6.25159C12.3387 6.1602 12.2252 5.91022 12.0809 5.6655C11.4423 4.67586 10.4095 4.10661 9.28183 3.80317C9.03559 3.73643 8.80556 3.65922 8.57529 3.5496C8.50009 3.40186 8.50752 3.2889 8.52136 3.12576C8.76924 2.96343 8.98547 2.98866 9.27641 3.0198Z" fill="#DBE8E9"/>
<path d="M14.2382 13.4041C14.4969 13.5169 14.6573 13.7008 14.8483 13.9007C14.8838 13.9364 14.9193 13.972 14.9559 14.0088C14.9892 14.0435 15.0224 14.0782 15.0567 14.1139C15.0872 14.1454 15.1178 14.1769 15.1493 14.2094C15.209 14.3047 15.209 14.3047 15.1989 14.4142C15.1309 14.5732 15.0167 14.6715 14.8922 14.7915C14.8445 14.8381 14.7968 14.8848 14.7476 14.9328C14.6158 15.0464 14.6158 15.0464 14.454 15.0994C13.7335 14.403 13.7335 14.403 13.5371 14.1458C13.598 13.9663 13.6516 13.9234 13.7967 13.8047C13.9506 13.6765 14.0983 13.5472 14.2382 13.4041Z" fill="#828285"/>
<path d="M3.23588 2.17212C3.27147 2.1896 3.30707 2.20709 3.34374 2.2251C2.98779 2.57477 2.63183 2.92444 2.26509 3.2847C2.2295 3.26722 2.1939 3.24974 2.15723 3.23172C2.51678 2.87852 2.87633 2.52532 3.23588 2.17212Z" fill="#828285"/>
<path d="M14.2383 13.4041C14.2739 13.4215 14.3094 13.439 14.3461 13.457C14.0944 13.7043 13.8427 13.9515 13.5911 14.1988C13.5911 13.9868 13.5911 13.9868 13.6779 13.8925C13.716 13.8624 13.7541 13.8324 13.7933 13.8014C13.8325 13.7696 13.8717 13.7379 13.9121 13.7052C13.9486 13.6757 13.985 13.6463 14.0225 13.616C14.0953 13.5462 14.1678 13.4761 14.2383 13.4041Z" fill="#828285"/>
</g>
<defs>
<clipPath id="clip0_17_2">
<rect width="24" height="24" fill="white"/>
</clipPath>
</defs>
</svg>
